<?xml version="1.0" encoding="utf-8"?>
<!-- Generator: Adobe Illustrator 24.1.0, SVG Export Plug-In . SVG Version: 6.00 Build 0)  -->
<svg version="1.1" id="Layer_1" xmlns="http://www.w3.org/2000/svg" xmlns:xlink="http://www.w3.org/1999/xlink" x="0px" y="0px"
	 viewBox="0 0 300 400" style="enable-background:new 0 0 300 400;" xml:space="preserve">
<style type="text/css">
	.st0{fill:#FFD561;}
	.st1{fill:#283182;}
	.st2{fill:#45505E;}
</style>
<g>
	<g>
		<path class="st0" d="M183.5,118.5c4-1.5,12.6-2.7,21-0.1c8.2-26.6,6.7-51.7,0.3-59.5h-21.7c0,0-0.2,0.7-0.6,1.9
			c-5.7,12.1-50.4,99.8-145.3,95.8l-2.7,17.7c9.6,3.8,11.8,5.3,20.5,7.5l1,0l1,9.7c52.2,12.3,88.2,1.7,112.1-18.1
			c-1-2.8-2-5.7-3-8.7C159,142.8,162.3,126.6,183.5,118.5z"/>
	</g>
	<g>
		<path class="st1" d="M247.5,116.1c-2.8-1.1-6.8-1.7-10.9-1.7c-3.2,0-8.2,0.4-13.5,2.3c1-5.8,1.4-12.2-0.5-17.4
			c-0.5-1.5-2.2-2.4-3.8-1.8c-1.5,0.5-2.4,2.2-1.8,3.8c1.9,5.5,0.8,12.9-0.7,18.8c-0.3,0.2-0.5,0.3-0.8,0.5c-4.5-3.4-9.4-5-13.8-5.8
			c6.5-21.9,8.3-50.4-0.1-61.4c0-0.3,0-0.5,0-0.8l-4.9-23.9c-0.3-1.4-1.5-2.4-2.9-2.4h-14.1c-1.6,0-3,1.3-3,3v22.3
			c-1,0.1-2,0.8-2.4,1.8c-0.1,0.3-11.1,25.5-34.2,49.9c-30.8,32.5-67.3,48.1-108.7,46.4c-1.5-0.1-2.8,1-3.1,2.5l-2.7,17.7
			c-0.2,1.4,0.6,2.7,1.8,3.2c2.5,1,4.6,1.9,6.3,2.6c4.7,2,7.6,3.2,13.6,4.8l0.8,7.4c0.1,1.3,1,2.3,2.3,2.6
			c14.9,3.5,29.1,5.3,42.4,5.3c28.9,0,53.6-8.3,73-24.6c11.5,33.4,24.6,50.4,39,50.4c4.6,0,8.3-1.8,10.5-3.3
			c2.2,1.4,5.9,3.3,10.5,3.3c0,0,0,0,0,0c15.2,0,28.9-18.7,40.8-55.6C275,140.4,268.7,124.1,247.5,116.1z M182.6,32.2h8.7l4,19.6
			h-12.8c0,0,0-0.1,0-0.1V32.2z M36.2,170.2c-1.2-0.5-2.6-1.1-4.2-1.8l2-12.8c1.2,0,2.4,0,3.6,0c50.5,0,86-26.1,107.1-48.5
			c4.1-4.4,7.9-8.7,11.2-13c-2.4,3.9-5,7.9-7.9,11.9c-17.5,24.5-48.9,55.6-98.8,64.3c-1.5,0.3-2.6,1.7-2.4,3.2l0.1,0.5
			C42.7,172.9,40.1,171.8,36.2,170.2z M53.9,185.1l-1-9.4c50.4-9.6,82.1-41.3,100-66.3c16.6-23.3,24.4-44.8,26.6-51.5h3.5
			c-1.4,4.1-4.5,13.2-9.7,24.2c-0.7,1.5,0,3.3,1.4,3.9c0.4,0.2,0.8,0.3,1.2,0.3c1.1,0,2.2-0.6,2.7-1.7c6.2-13.5,9.6-23.8,10.5-26.7
			h8.2c2.4,4,3.9,11.6,3.9,20.8c0,11.1-2,23.7-5.7,35.6c-0.2,0-0.5,0-0.7,0c-4.2,0-8.6,0.7-11.6,1.8c-20.9,7.9-27.3,23.9-19.5,48.9
			C137.1,188.8,100.1,195.5,53.9,185.1z M261.1,164.1c-6.2,19.2-19,51.5-35.1,51.4c-4.2,0-7.4-2.3-8.7-3.3c-0.5-0.4-1.1-0.6-1.8-0.6
			c-0.6,0-1.2,0.2-1.8,0.6c-1.3,1-4.5,3.3-8.7,3.3c-16.1,0-28.9-32.2-35.1-51.4c-7.3-22.5-2.4-35.6,15.6-42.5
			c1.9-0.7,5.3-1.5,9.5-1.5c5.1,0,12.5,1.1,18.5,6.4c0.2,0.2,0.4,0.3,0.7,0.4c-0.6,1.5-1,2.5-1,2.7c-1.9-0.5-3.1-1.3-3.2-1.4
			c-1.3-0.9-3.2-0.6-4.1,0.7c-1,1.3-0.6,3.2,0.7,4.1c0.3,0.2,4.3,3,10,3c3,0,6.5-0.8,10.2-3.2c1.4-0.9,1.7-2.8,0.8-4.1
			c-0.9-1.4-2.8-1.7-4.1-0.8c-1.3,0.9-2.6,1.4-3.9,1.8c0.5-1.4,1.2-3.4,1.9-5.8c5.8-3.1,11.8-3.6,15.2-3.6c3.4,0,6.7,0.5,8.8,1.3
			C263.5,128.5,268.3,141.6,261.1,164.1z"/>
		<path class="st1" d="M177.5,152.4c-0.7-3.5-0.9-5.6-0.9-5.6c-0.2-1.6-1.6-2.8-3.2-2.7c-1.6,0.2-2.8,1.6-2.7,3.2
			c0,0.1,0.2,2.4,0.9,6.1c0.3,1.4,1.5,2.4,2.9,2.4c0.2,0,0.4,0,0.5-0.1C176.7,155.5,177.8,154,177.5,152.4z"/>
		<path class="st1" d="M180.9,165.8c-0.5-1.6-2.2-2.4-3.7-1.9c-1.6,0.5-2.4,2.2-1.9,3.7c2.8,9,6.6,17.4,11.2,24.9
			c0.6,0.9,1.5,1.4,2.5,1.4c0.5,0,1.1-0.1,1.5-0.4c1.4-0.9,1.8-2.7,1-4.1C187.1,182.3,183.6,174.4,180.9,165.8z"/>
		<path class="st1" d="M169.8,95.8c-1.4-0.8-3.2-0.3-4,1.2c-13.3,23.9-28.6,41.4-45.7,52c-1.4,0.9-1.8,2.7-1,4.1
			c0.6,0.9,1.5,1.4,2.5,1.4c0.5,0,1.1-0.1,1.6-0.4c17.9-11.1,34-29.4,47.7-54.1C171.8,98.4,171.2,96.6,169.8,95.8z"/>
	</g>
</g>
<g>
	<g>
		<path class="st2" d="M67.5,321.3H49v-32.8h18.6v4.5H54.3v8.9h12.4v4.5H54.3v10.3h13.2V321.3z"/>
		<path class="st2" d="M90.5,321.3l-1.1-3.5h-0.2c-1.2,1.5-2.4,2.5-3.6,3.1c-1.2,0.5-2.8,0.8-4.7,0.8c-2.4,0-4.3-0.7-5.7-2
			c-1.4-1.3-2.1-3.2-2.1-5.6c0-2.6,1-4.5,2.9-5.8c1.9-1.3,4.8-2,8.7-2.1l4.3-0.1v-1.3c0-1.6-0.4-2.8-1.1-3.6
			c-0.7-0.8-1.9-1.2-3.4-1.2c-1.3,0-2.5,0.2-3.7,0.6c-1.2,0.4-2.3,0.8-3.4,1.3l-1.7-3.8c1.3-0.7,2.8-1.2,4.4-1.6
			c1.6-0.4,3.1-0.6,4.5-0.6c3.2,0,5.5,0.7,7.2,2.1c1.6,1.4,2.4,3.5,2.4,6.5v16.7H90.5z M82.7,317.7c1.9,0,3.5-0.5,4.6-1.6
			c1.2-1.1,1.7-2.6,1.7-4.5v-2.2l-3.2,0.1c-2.5,0.1-4.3,0.5-5.4,1.2c-1.1,0.7-1.7,1.9-1.7,3.4c0,1.1,0.3,2,1,2.6
			C80.4,317.4,81.4,317.7,82.7,317.7z"/>
		<path class="st2" d="M111.9,317.5c1.3,0,2.6-0.2,3.9-0.6v4c-0.6,0.3-1.3,0.5-2.3,0.6c-0.9,0.2-1.9,0.3-2.9,0.3
			c-5,0-7.5-2.6-7.5-7.9v-13.4h-3.4v-2.3l3.6-1.9l1.8-5.3h3.3v5.5h7.1v4h-7.1v13.3c0,1.3,0.3,2.2,1,2.8
			C110,317.2,110.8,317.5,111.9,317.5z"/>
		<path class="st2" d="M149.2,321.3l-9.5-27.4h-0.2c0.3,4.1,0.4,7.9,0.4,11.5v16H135v-32.8h7.6l9.1,26.1h0.1l9.4-26.1h7.6v32.8h-5.2
			v-16.2c0-1.6,0-3.8,0.1-6.4c0.1-2.6,0.2-4.2,0.2-4.8h-0.2l-9.9,27.4H149.2z"/>
		<path class="st2" d="M199.9,308.9c0,4.1-1,7.2-3.1,9.5c-2.1,2.3-5,3.4-8.7,3.4c-2.3,0-4.4-0.5-6.2-1.6c-1.8-1-3.2-2.6-4.1-4.5
			c-1-2-1.4-4.2-1.4-6.8c0-4,1-7.2,3.1-9.4c2.1-2.3,5-3.4,8.7-3.4c3.6,0,6.4,1.2,8.5,3.5C198.8,301.8,199.9,305,199.9,308.9z
			 M181.8,308.9c0,5.7,2.1,8.6,6.4,8.6c4.2,0,6.3-2.9,6.3-8.6c0-5.7-2.1-8.5-6.3-8.5c-2.2,0-3.8,0.7-4.8,2.2
			C182.3,304,181.8,306.1,181.8,308.9z"/>
		<path class="st2" d="M219.5,296.1c1.1,0,1.9,0.1,2.6,0.2l-0.5,4.9c-0.7-0.2-1.5-0.3-2.3-0.3c-2.1,0-3.8,0.7-5.1,2.1
			c-1.3,1.4-2,3.2-2,5.4v13h-5.3v-24.8h4.1l0.7,4.4h0.3c0.8-1.5,1.9-2.7,3.2-3.5C216.5,296.5,217.9,296.1,219.5,296.1z"/>
		<path class="st2" d="M238.5,321.8c-3.9,0-6.9-1.1-9.1-3.4c-2.2-2.3-3.3-5.4-3.3-9.3c0-4.1,1-7.2,3-9.6c2-2.3,4.8-3.5,8.3-3.5
			c3.3,0,5.9,1,7.8,3c1.9,2,2.9,4.7,2.9,8.2v2.9h-16.6c0.1,2.4,0.7,4.3,2,5.6c1.2,1.3,3,1.9,5.2,1.9c1.5,0,2.8-0.1,4.1-0.4
			c1.3-0.3,2.6-0.7,4.1-1.4v4.3c-1.3,0.6-2.6,1-3.9,1.3C241.7,321.7,240.2,321.8,238.5,321.8z M237.5,300c-1.7,0-3,0.5-4,1.6
			c-1,1.1-1.6,2.6-1.8,4.6h11.3c0-2.1-0.5-3.6-1.5-4.7C240.5,300.6,239.2,300,237.5,300z"/>
		<path class="st2" d="M91.4,373.3h-5.3v-32.8h18.5v4.5H91.4v10.3h12.4v4.6H91.4V373.3z"/>
		<path class="st2" d="M123.6,348.1c1.1,0,1.9,0.1,2.6,0.2l-0.5,4.9c-0.7-0.2-1.5-0.3-2.3-0.3c-2.1,0-3.8,0.7-5.1,2.1
			c-1.3,1.4-2,3.2-2,5.4v13H111v-24.8h4.1l0.7,4.4h0.3c0.8-1.5,1.9-2.7,3.2-3.5C120.6,348.5,122,348.1,123.6,348.1z"/>
		<path class="st2" d="M149.2,373.3l-0.7-3.3h-0.3c-0.7,1.2-1.8,2.1-3.1,2.7c-1.4,0.7-2.9,1-4.6,1c-3,0-5.3-0.7-6.7-2.2
			c-1.5-1.5-2.2-3.8-2.2-6.8v-16.2h5.3v15.3c0,1.9,0.4,3.3,1.2,4.3c0.8,1,2,1.4,3.7,1.4c2.2,0,3.8-0.7,4.9-2c1-1.3,1.6-3.5,1.6-6.7
			v-12.4h5.3v24.8H149.2z"/>
		<path class="st2" d="M161.5,341.9c0-0.9,0.3-1.7,0.8-2.2c0.5-0.5,1.3-0.8,2.2-0.8c0.9,0,1.7,0.3,2.2,0.8c0.5,0.5,0.8,1.2,0.8,2.2
			c0,0.9-0.3,1.6-0.8,2.1s-1.2,0.8-2.2,0.8c-1,0-1.7-0.3-2.2-0.8S161.5,342.8,161.5,341.9z M167.1,373.3h-5.3v-24.8h5.3V373.3z"/>
		<path class="st2" d="M184.8,369.5c1.3,0,2.6-0.2,3.9-0.6v4c-0.6,0.3-1.3,0.5-2.3,0.6c-0.9,0.2-1.9,0.3-2.9,0.3
			c-5,0-7.5-2.6-7.5-7.9v-13.4h-3.4v-2.3l3.6-1.9l1.8-5.3h3.3v5.5h7.1v4h-7.1v13.3c0,1.3,0.3,2.2,1,2.8
			C183,369.2,183.8,369.5,184.8,369.5z"/>
		<path class="st2" d="M211.3,366.3c0,2.4-0.9,4.3-2.7,5.6c-1.8,1.3-4.3,1.9-7.6,1.9c-3.3,0-6-0.5-8-1.5v-4.6c2.9,1.3,5.6,2,8.2,2
			c3.2,0,4.9-1,4.9-2.9c0-0.6-0.2-1.2-0.5-1.6c-0.4-0.4-1-0.9-1.8-1.3c-0.8-0.4-2-1-3.4-1.5c-2.9-1.1-4.8-2.2-5.8-3.3
			c-1-1.1-1.5-2.5-1.5-4.3c0-2.1,0.9-3.8,2.6-5c1.7-1.2,4-1.8,7-1.8c2.9,0,5.7,0.6,8.3,1.8l-1.7,4c-2.7-1.1-4.9-1.7-6.8-1.7
			c-2.8,0-4.2,0.8-4.2,2.4c0,0.8,0.4,1.4,1.1,2c0.7,0.5,2.3,1.3,4.8,2.2c2.1,0.8,3.5,1.5,4.5,2.2c0.9,0.7,1.6,1.4,2.1,2.3
			C211,364,211.3,365.1,211.3,366.3z"/>
	</g>
</g>
</svg>
