<?xml version="1.0" encoding="utf-8"?>
<!-- Generator: Adobe Illustrator 24.1.0, SVG Export Plug-In . SVG Version: 6.00 Build 0)  -->
<svg version="1.1" id="Layer_1" xmlns="http://www.w3.org/2000/svg" xmlns:xlink="http://www.w3.org/1999/xlink" x="0px" y="0px"
	 viewBox="0 0 300 400" style="enable-background:new 0 0 300 400;" xml:space="preserve">
<style type="text/css">
	.st0{fill:#C9E084;}
	.st1{fill:#283182;}
	.st2{fill:#45505E;}
</style>
<g>
	<g>
		<path class="st0" d="M129.1,210.1c0.8,7.6,7.6,13.8,15.2,13.8h49.8c7.6,0,14.5-6.2,15.2-13.8l9.5-85.8
			c-46.3-0.8-54-21.6-101.4-21.8L129.1,210.1z"/>
	</g>
	<path class="st1" d="M216.7,27.8c-19.1,0-34.7,15.6-34.7,34.7c0,0.8,0,1.5,0.1,2.2h-40.3L130,16.8c-0.3-1.3-1.5-2.3-2.9-2.3H65.9
		c-1.7,0-3,1.4-3,3v9.1c0,1.7,1.4,3,3,3h50.8l8.4,35.1h-21.4c-0.9,0-1.7,0.4-2.2,1c-0.6,0.6-0.9,1.5-0.8,2.3l15.2,151.2
		c0.9,9.1,9.1,16.5,18.2,16.5h49.8c9.1,0,17.3-7.4,18.2-16.5l12.3-122.1c0.8,0.1,1.5,0.1,2.3,0.1c0,0,0,0,0,0
		c19.1,0,34.7-15.6,34.7-34.7C251.4,43.4,235.9,27.8,216.7,27.8z M122,25.9c-0.3-1.4-1.5-2.3-2.9-2.3H68.9v-3.1h55.8l10.9,44.2h-4.3
		L122,25.9z M140.6,103.4l-7.9-32.7h4.4l8.5,34.2C144,104.4,142.4,103.9,140.6,103.4z M126.6,70.8l7.5,31.1
		c-6.7-1.3-14.5-2.2-24.1-2.2l-2.9-29H126.6z M196.1,218.6c-0.1,0.6-0.2,1.1-0.3,1.7c-0.1,0-0.2,0-0.4,0H141c-1.7,0-3,1.4-3,3
		c0,1.7,1.4,3,3,3h51c-2.2,2.1-5.2,3.4-8.2,3.4h-49.8c-3,0-6-1.3-8.2-3.4h0.7c1.7,0,3-1.4,3-3c0-1.7-1.4-3-3-3h-4.4
		c-0.1-0.5-0.3-1.1-0.3-1.7l-11.4-112.8c16.9,0.1,27.6,2.7,36.8,6.2l23.6,95.3h-4.5L146.5,130c-0.4-1.6-2.1-2.6-3.7-2.2
		c-1.6,0.4-2.6,2.1-2.2,3.7l20.5,79.5c0.3,1.3,1.5,2.3,2.9,2.3h10.6c0.9,0,1.8-0.4,2.4-1.2c0.6-0.7,0.8-1.7,0.6-2.6l-23.4-94.7
		c1.2,0.5,2.3,1,3.5,1.5c11.9,5.2,24.2,10.6,47.5,11L196.1,218.6z M205.9,121.3c-22.5-0.3-33.8-5.3-45.7-10.5
		c-2.5-1.1-5.1-2.2-7.7-3.3l-9.1-36.7H185h15.3l-9.9,8.7c-0.6,0.5-0.9,1.3-1,2c-0.4,1-0.2,2.1,0.5,3c4.8,5.9,11.3,9.9,18.5,11.7
		L205.9,121.3z M216.7,91.1C216.7,91.1,216.7,91.1,216.7,91.1c-7.8,0-15.1-3.1-20.5-8.7l12.1-10.7c0.2,0.2,0.4,0.4,0.6,0.5
		c1,0.8,2.3,1.1,3.5,1.1c1.4,0,2.7-0.5,3.7-1.3c1.1,0.8,2.4,1.3,3.7,1.3c1.3,0,2.6-0.4,3.6-1.2c1.3-1,2.1-2.4,2.4-4
		c0.1-1,0-1.9-0.3-2.8c2.1-1.5,3.1-4.1,2.3-6.7c-0.8-2.6-3.1-4.3-5.8-4.3c-0.1,0-0.2,0-0.3,0c-0.8-2.5-3-4.3-5.8-4.3
		c-2.7,0-5,1.8-5.8,4.3c-0.1,0-0.2,0-0.2,0c-2.7,0-5,1.7-5.8,4.3c-0.7,2.2,0,4.5,1.5,6h-7.7c-0.1-0.7-0.1-1.5-0.1-2.2
		c0-10.4,8.4-18.8,18.8-18.8c7.5,0,14.3,4.5,17.3,11.3c1,2.4,1.5,4.9,1.5,7.5c0,10.4-8.4,18.8-18.8,18.8c-2.2,0-4.4-0.4-6.4-1.1
		c-1.6-0.6-3.3,0.2-3.9,1.8c-0.6,1.6,0.2,3.3,1.8,3.9c2.7,1,5.6,1.5,8.5,1.5c13.7,0,24.8-11.1,24.8-24.8c0-3.4-0.7-6.7-2-9.9
		c-3.9-9.1-12.9-15-22.8-15c-13.7,0-24.8,11.1-24.8,24.8c0,0.8,0,1.5,0.1,2.2h-3.8c-0.1-0.7-0.1-1.5-0.1-2.2
		c0-15.8,12.9-28.6,28.6-28.6c15.8,0,28.6,12.9,28.6,28.6S232.5,91.1,216.7,91.1z"/>
</g>
<g>
	<g>
		<path class="st2" d="M85.1,305.8c0,5.4-1.5,9.6-4.5,12.4c-3,2.9-7.3,4.3-13,4.3h-9.2v-32.8h10.2c5.2,0,9.3,1.4,12.2,4.2
			C83.6,296.7,85.1,300.7,85.1,305.8z M79.4,306c0-7.9-3.7-11.8-11-11.8h-4.6V318h3.8C75.5,318,79.4,314,79.4,306z"/>
		<path class="st2" d="M103.3,323c-3.9,0-6.9-1.1-9.1-3.4c-2.2-2.3-3.3-5.4-3.3-9.3c0-4.1,1-7.2,3-9.6c2-2.3,4.8-3.5,8.3-3.5
			c3.3,0,5.9,1,7.8,3c1.9,2,2.9,4.7,2.9,8.2v2.9H96.4c0.1,2.4,0.7,4.3,2,5.6c1.2,1.3,3,1.9,5.2,1.9c1.5,0,2.8-0.1,4.1-0.4
			c1.3-0.3,2.6-0.7,4.1-1.4v4.3c-1.3,0.6-2.6,1-3.9,1.3C106.5,322.9,105,323,103.3,323z M102.4,301.2c-1.7,0-3,0.5-4,1.6
			c-1,1.1-1.6,2.6-1.8,4.6h11.3c0-2.1-0.5-3.6-1.5-4.7C105.4,301.8,104,301.2,102.4,301.2z"/>
		<path class="st2" d="M129.2,318.7c1.3,0,2.6-0.2,3.9-0.6v4c-0.6,0.3-1.3,0.5-2.3,0.6c-0.9,0.2-1.9,0.3-2.9,0.3
			c-5,0-7.5-2.6-7.5-7.9v-13.4H117v-2.3l3.6-1.9l1.8-5.3h3.3v5.5h7.1v4h-7.1V315c0,1.3,0.3,2.2,1,2.8
			C127.3,318.4,128.1,318.7,129.2,318.7z"/>
		<path class="st2" d="M160.9,310.1c0,4.1-1,7.2-3.1,9.5c-2.1,2.3-5,3.4-8.7,3.4c-2.3,0-4.4-0.5-6.2-1.6c-1.8-1-3.2-2.6-4.1-4.5
			c-1-2-1.4-4.2-1.4-6.8c0-4,1-7.2,3.1-9.4c2.1-2.3,5-3.4,8.7-3.4c3.6,0,6.4,1.2,8.5,3.5C159.9,303,160.9,306.2,160.9,310.1z
			 M142.9,310.1c0,5.7,2.1,8.6,6.4,8.6c4.2,0,6.3-2.9,6.3-8.6c0-5.7-2.1-8.5-6.3-8.5c-2.2,0-3.8,0.7-4.8,2.2
			C143.4,305.2,142.9,307.3,142.9,310.1z"/>
		<path class="st2" d="M173.5,309.9l-8.3-12.2h6l5.7,8.7l5.7-8.7h6l-8.4,12.2l8.8,12.7h-6l-6.1-9.3l-6.1,9.3h-6L173.5,309.9z"/>
		<path class="st2" d="M193.9,291.1c0-0.9,0.3-1.7,0.8-2.2c0.5-0.5,1.3-0.8,2.2-0.8c0.9,0,1.7,0.3,2.2,0.8c0.5,0.5,0.8,1.2,0.8,2.2
			c0,0.9-0.3,1.6-0.8,2.1s-1.2,0.8-2.2,0.8c-1,0-1.7-0.3-2.2-0.8C194.1,292.7,193.9,292,193.9,291.1z M199.5,322.5h-5.3v-24.8h5.3
			V322.5z"/>
		<path class="st2" d="M220.4,301.7h-6.1v20.8H209v-20.8h-4.1v-2.5l4.1-1.6V296c0-2.9,0.7-5.1,2.1-6.5c1.4-1.4,3.5-2.1,6.3-2.1
			c1.9,0,3.7,0.3,5.5,0.9l-1.4,4c-1.3-0.4-2.5-0.6-3.7-0.6c-1.2,0-2.1,0.4-2.6,1.1c-0.5,0.7-0.8,1.9-0.8,3.3v1.6h6.1V301.7z"/>
		<path class="st2" d="M221.8,297.7h5.8l5.1,14.1c0.8,2,1.3,3.9,1.5,5.7h0.2c0.1-0.8,0.4-1.8,0.7-3c0.4-1.2,2.3-6.8,5.7-16.7h5.7
			l-10.6,28.1c-1.9,5.2-5.2,7.7-9.7,7.7c-1.2,0-2.3-0.1-3.4-0.4V329c0.8,0.2,1.7,0.3,2.7,0.3c2.5,0,4.3-1.5,5.4-4.4l0.9-2.3
			L221.8,297.7z"/>
		<path class="st2" d="M46.1,356.7l7.8-15h5.8l-10.9,20.1v12.7h-5.4V362l-10.9-20.3h5.8L46.1,356.7z"/>
		<path class="st2" d="M86.5,362.1c0,4.1-1,7.2-3.1,9.5c-2.1,2.3-5,3.4-8.7,3.4c-2.3,0-4.4-0.5-6.2-1.6c-1.8-1-3.2-2.6-4.1-4.5
			c-1-2-1.4-4.2-1.4-6.8c0-4,1-7.2,3.1-9.4c2.1-2.3,5-3.4,8.7-3.4c3.6,0,6.4,1.2,8.5,3.5C85.4,355,86.5,358.2,86.5,362.1z
			 M68.4,362.1c0,5.7,2.1,8.6,6.4,8.6c4.2,0,6.3-2.9,6.3-8.6c0-5.7-2.1-8.5-6.3-8.5c-2.2,0-3.8,0.7-4.8,2.2
			C68.9,357.2,68.4,359.3,68.4,362.1z"/>
		<path class="st2" d="M111,374.5l-0.7-3.3H110c-0.7,1.2-1.8,2.1-3.1,2.7c-1.4,0.7-2.9,1-4.6,1c-3,0-5.3-0.7-6.7-2.2
			c-1.5-1.5-2.2-3.8-2.2-6.8v-16.2h5.3V365c0,1.9,0.4,3.3,1.2,4.3c0.8,1,2,1.4,3.7,1.4c2.2,0,3.8-0.7,4.9-2c1-1.3,1.6-3.5,1.6-6.7
			v-12.4h5.3v24.8H111z"/>
		<path class="st2" d="M136.2,349.3c1.1,0,1.9,0.1,2.6,0.2l-0.5,4.9c-0.7-0.2-1.5-0.3-2.3-0.3c-2.1,0-3.8,0.7-5.1,2.1
			c-1.3,1.4-2,3.2-2,5.4v13h-5.3v-24.8h4.1l0.7,4.4h0.3c0.8-1.5,1.9-2.7,3.2-3.5C133.2,349.7,134.6,349.3,136.2,349.3z"/>
		<path class="st2" d="M157.7,341.7h9.7c4.5,0,7.8,0.7,9.8,2c2,1.3,3,3.4,3,6.2c0,1.9-0.5,3.5-1.5,4.8c-1,1.3-2.4,2.1-4.3,2.4v0.2
			c2.3,0.4,4,1.3,5.1,2.6c1.1,1.3,1.6,3,1.6,5.2c0,3-1,5.3-3.1,6.9c-2.1,1.7-4.9,2.5-8.6,2.5h-11.9V341.7z M163.1,355.3h5.2
			c2.2,0,3.9-0.4,4.9-1.1c1-0.7,1.5-1.9,1.5-3.6c0-1.5-0.6-2.7-1.7-3.3c-1.1-0.7-2.9-1-5.3-1h-4.6V355.3z M163.1,359.6V370h5.7
			c2.2,0,3.9-0.4,5.1-1.3c1.1-0.9,1.7-2.2,1.7-4.1c0-1.7-0.6-3-1.8-3.8c-1.2-0.8-2.9-1.2-5.3-1.2H163.1z"/>
		<path class="st2" d="M210.5,362.1c0,4.1-1,7.2-3.1,9.5c-2.1,2.3-5,3.4-8.7,3.4c-2.3,0-4.4-0.5-6.2-1.6c-1.8-1-3.2-2.6-4.1-4.5
			c-1-2-1.4-4.2-1.4-6.8c0-4,1-7.2,3.1-9.4c2.1-2.3,5-3.4,8.7-3.4c3.6,0,6.4,1.2,8.5,3.5C209.5,355,210.5,358.2,210.5,362.1z
			 M192.4,362.1c0,5.7,2.1,8.6,6.4,8.6c4.2,0,6.3-2.9,6.3-8.6c0-5.7-2.1-8.5-6.3-8.5c-2.2,0-3.8,0.7-4.8,2.2
			C192.9,357.2,192.4,359.3,192.4,362.1z"/>
		<path class="st2" d="M225.9,375c-3.1,0-5.5-1.1-7.3-3.4c-1.7-2.2-2.6-5.4-2.6-9.5c0-4.1,0.9-7.2,2.6-9.5c1.8-2.3,4.2-3.4,7.3-3.4
			c3.3,0,5.8,1.2,7.5,3.6h0.3c-0.3-1.8-0.4-3.2-0.4-4.2v-9.1h5.3v34.9h-4.1l-0.9-3.3h-0.2C231.6,373.8,229.1,375,225.9,375z
			 M227.3,370.7c2.2,0,3.8-0.6,4.7-1.8c1-1.2,1.5-3.2,1.5-5.9v-0.7c0-3.1-0.5-5.4-1.5-6.7c-1-1.3-2.6-2-4.8-2
			c-1.9,0-3.3,0.8-4.3,2.3c-1,1.5-1.5,3.6-1.5,6.4c0,2.8,0.5,4.9,1.5,6.3C223.9,370,225.3,370.7,227.3,370.7z"/>
		<path class="st2" d="M243.3,349.7h5.8l5.1,14.1c0.8,2,1.3,3.9,1.5,5.7h0.2c0.1-0.8,0.4-1.8,0.7-3c0.4-1.2,2.3-6.8,5.7-16.7h5.7
			l-10.6,28.1c-1.9,5.2-5.2,7.7-9.7,7.7c-1.2,0-2.3-0.1-3.4-0.4V381c0.8,0.2,1.7,0.3,2.7,0.3c2.5,0,4.3-1.5,5.4-4.4l0.9-2.3
			L243.3,349.7z"/>
	</g>
</g>
</svg>
