<?xml version="1.0" encoding="utf-8"?>
<!-- Generator: Adobe Illustrator 24.1.0, SVG Export Plug-In . SVG Version: 6.00 Build 0)  -->
<svg version="1.1" id="Layer_1" xmlns="http://www.w3.org/2000/svg" xmlns:xlink="http://www.w3.org/1999/xlink" x="0px" y="0px"
	 viewBox="0 0 300 400" style="enable-background:new 0 0 300 400;" xml:space="preserve">
<style type="text/css">
	.st0{fill:#C9E084;}
	.st1{fill:#283182;}
	.st2{fill:#45505E;}
</style>
<g>
	<g>
		<path class="st0" d="M258,152.1c0,18.5-15,33.4-33.4,33.4s-33.4-15-33.4-33.4c0-18.5,15-33.4,33.4-33.4S258,133.6,258,152.1z"/>
	</g>
	<g>
		<path class="st0" d="M107.7,152.1c0,18.5-15,33.4-33.4,33.4c-18.5,0-33.4-15-33.4-33.4c0-18.5,15-33.4,33.4-33.4
			C92.8,118.6,107.7,133.6,107.7,152.1z"/>
	</g>
	<path class="st1" d="M225.5,101.5c-7.2,0-14.1,1.5-20.3,4.3L180.7,57h20.9c1.7,0,3-1.3,3-3c0-1.7-1.3-3-3-3h-25.7
		c-1,0-2,0.5-2.5,1.4c-0.5,0.9-0.6,2-0.1,2.9L187,82.9h-16.3c-1.7,0-3,1.3-3,3c0,1.7,1.3,3,3,3h15.3l-31.4,54.2
		c-1.7-1.1-3.7-1.8-5.8-1.8c-0.4,0-0.8,0-1.2,0.1c0,0,0,0,0,0l-29.4-52.5h41.5c1.7,0,3-1.3,3-3c0-1.7-1.3-3-3-3H115l-7-12.6h5.5
		c1.7,0,3-1.3,3-3c0-1.7-1.3-3-3-3H94.7c-1.7,0-3,1.3-3,3c0,1.7,1.3,3,3,3h6.5c0.1,0.2,0.1,0.4,0.3,0.7l8.4,15l-12.4,21.3
		c-7.1-3.7-15.1-5.9-23.7-5.9c-7.6,0-14.9,1.6-21.7,4.9c-1.5,0.7-2.1,2.5-1.4,4c0.7,1.5,2.5,2.1,4,1.4c6-2.9,12.5-4.3,19.2-4.3
		c7.4,0,14.5,1.8,20.7,5.1l-20.9,36c-0.5,0.9-0.5,2.1,0,3c0.5,0.9,1.5,1.5,2.6,1.5h42.3c-0.5,24.2-20.3,43.8-44.7,43.8
		c-24.6,0-44.7-20-44.7-44.7c0-8.4,2.4-16.7,6.8-23.8c0.9-1.4,0.5-3.2-0.9-4.1c-1.4-0.9-3.2-0.5-4.1,0.9c-5.1,8.1-7.8,17.4-7.8,27
		c0,27.9,22.7,50.7,50.7,50.7c27.6,0,50.2-22.3,50.7-49.8h13.8c0.5,5.3,5.1,9.5,10.5,9.5c5.8,0,10.6-4.8,10.6-10.6
		c0-1.4-0.3-2.6-0.7-3.8l32.7-56.5l8.4,16.8c-15,8.8-25.1,25.1-25.1,43.7c0,12.2,4.4,23.9,12.3,33.1c1.1,1.2,3,1.4,4.2,0.3
		c1.3-1.1,1.4-3,0.3-4.2c-7-8.1-10.8-18.5-10.8-29.2c0-16.3,8.7-30.5,21.8-38.3l19.2,38.2c0.5,1,1.6,1.7,2.7,1.7
		c0.5,0,0.9-0.1,1.3-0.3c1.5-0.7,2.1-2.5,1.3-4l-19.2-38.2c5.4-2.3,11.4-3.6,17.6-3.6c24.6,0,44.7,20,44.7,44.7
		c0,24.6-20,44.7-44.7,44.7c-5.6,0-11.2-1-16.4-3.1c-1.5-0.6-3.3,0.1-3.9,1.7c-0.6,1.5,0.2,3.3,1.7,3.9c5.9,2.3,12.1,3.5,18.6,3.5
		c27.9,0,50.7-22.7,50.7-50.7C276.1,124.2,253.4,101.5,225.5,101.5z M113.2,92.1l28.9,51.7c-1.1,0.9-2,2-2.7,3.3h-15.2
		c-1.5-15.2-9.7-28.4-21.7-36.6L113.2,92.1z M99.6,115.7c10.1,7.2,17.2,18.5,18.6,31.4H81.4L99.6,115.7z M148.9,156.6
		c-2.5,0-4.6-2.1-4.6-4.6c0-2.5,2.1-4.6,4.6-4.6c2.5,0,4.6,2.1,4.6,4.6C153.5,154.5,151.4,156.6,148.9,156.6z"/>
</g>
<g>
	<g>
		<path class="st2" d="M2.5,324.9V338h-5.4v-32.8h9.3c4.2,0,7.4,0.8,9.4,2.4c2,1.6,3.1,4,3.1,7.2c0,4.1-2.1,7-6.4,8.7l9.3,14.5h-6.1
			l-7.9-13.1H2.5z M2.5,320.5h3.7c2.5,0,4.3-0.5,5.4-1.4c1.1-0.9,1.7-2.3,1.7-4.1c0-1.9-0.6-3.2-1.8-4c-1.2-0.8-3-1.2-5.5-1.2H2.5
			V320.5z"/>
		<path class="st2" d="M26.6,306.6c0-0.9,0.3-1.7,0.8-2.2c0.5-0.5,1.3-0.8,2.2-0.8c0.9,0,1.7,0.3,2.2,0.8c0.5,0.5,0.8,1.2,0.8,2.2
			c0,0.9-0.3,1.6-0.8,2.1c-0.5,0.5-1.2,0.8-2.2,0.8c-1,0-1.7-0.3-2.2-0.8C26.9,308.2,26.6,307.5,26.6,306.6z M32.2,338h-5.3v-24.8
			h5.3V338z"/>
		<path class="st2" d="M49.1,338.5c-3.1,0-5.5-1.1-7.3-3.4c-1.7-2.2-2.6-5.4-2.6-9.5c0-4.1,0.9-7.2,2.6-9.5c1.8-2.3,4.2-3.4,7.3-3.4
			c3.3,0,5.8,1.2,7.5,3.6h0.3c-0.3-1.8-0.4-3.2-0.4-4.2v-9.1h5.3V338h-4.1l-0.9-3.3h-0.2C54.8,337.2,52.3,338.5,49.1,338.5z
			 M50.5,334.2c2.2,0,3.8-0.6,4.7-1.8c1-1.2,1.5-3.2,1.5-5.9v-0.7c0-3.1-0.5-5.4-1.5-6.7c-1-1.3-2.6-2-4.8-2c-1.9,0-3.3,0.8-4.3,2.3
			c-1,1.5-1.5,3.7-1.5,6.4c0,2.8,0.5,4.9,1.5,6.3C47.1,333.5,48.5,334.2,50.5,334.2z"/>
		<path class="st2" d="M81.1,338.5c-3.9,0-6.9-1.1-9.1-3.4c-2.2-2.3-3.3-5.4-3.3-9.3c0-4.1,1-7.2,3-9.6c2-2.3,4.8-3.5,8.3-3.5
			c3.3,0,5.9,1,7.8,3c1.9,2,2.9,4.7,2.9,8.2v2.9H74.2c0.1,2.4,0.7,4.3,2,5.6c1.2,1.3,3,1.9,5.2,1.9c1.5,0,2.8-0.1,4.1-0.4
			c1.3-0.3,2.6-0.7,4.1-1.4v4.3c-1.3,0.6-2.6,1-3.9,1.3C84.3,338.4,82.8,338.5,81.1,338.5z M80.1,316.7c-1.7,0-3,0.5-4,1.6
			c-1,1.1-1.6,2.6-1.8,4.6h11.3c0-2.1-0.5-3.6-1.5-4.7C83.1,317.3,81.8,316.7,80.1,316.7z"/>
		<path class="st2" d="M126.1,338l-1.1-3.5h-0.2c-1.2,1.5-2.4,2.5-3.6,3.1c-1.2,0.5-2.8,0.8-4.7,0.8c-2.4,0-4.3-0.7-5.7-2
			c-1.4-1.3-2.1-3.2-2.1-5.6c0-2.6,1-4.5,2.9-5.8c1.9-1.3,4.8-2,8.7-2.1l4.3-0.1v-1.3c0-1.6-0.4-2.8-1.1-3.6
			c-0.7-0.8-1.9-1.2-3.4-1.2c-1.3,0-2.5,0.2-3.7,0.6c-1.2,0.4-2.3,0.8-3.4,1.3l-1.7-3.8c1.3-0.7,2.8-1.2,4.4-1.6
			c1.6-0.4,3.1-0.5,4.5-0.5c3.2,0,5.5,0.7,7.2,2.1c1.6,1.4,2.4,3.5,2.4,6.5V338H126.1z M118.2,334.4c1.9,0,3.5-0.5,4.6-1.6
			c1.2-1.1,1.7-2.6,1.7-4.5v-2.2l-3.2,0.1c-2.5,0.1-4.3,0.5-5.4,1.2c-1.1,0.7-1.7,1.9-1.7,3.4c0,1.1,0.3,2,1,2.6
			C115.9,334.1,116.9,334.4,118.2,334.4z"/>
		<path class="st2" d="M151.6,305.2h9.7c4.5,0,7.8,0.7,9.8,2c2,1.3,3,3.4,3,6.2c0,1.9-0.5,3.5-1.5,4.8c-1,1.3-2.4,2.1-4.3,2.4v0.2
			c2.3,0.4,4,1.3,5.1,2.6c1.1,1.3,1.6,3,1.6,5.2c0,3-1,5.3-3.1,6.9c-2.1,1.7-4.9,2.5-8.6,2.5h-11.9V305.2z M157,318.8h5.2
			c2.2,0,3.9-0.4,4.9-1.1c1-0.7,1.5-1.9,1.5-3.6c0-1.5-0.6-2.7-1.7-3.3c-1.1-0.7-2.9-1-5.3-1H157V318.8z M157,323.1v10.4h5.7
			c2.2,0,3.9-0.4,5.1-1.3c1.1-0.9,1.7-2.2,1.7-4.1c0-1.7-0.6-3-1.8-3.8c-1.2-0.8-2.9-1.2-5.3-1.2H157z"/>
		<path class="st2" d="M182,306.6c0-0.9,0.3-1.7,0.8-2.2c0.5-0.5,1.3-0.8,2.2-0.8c0.9,0,1.7,0.3,2.2,0.8c0.5,0.5,0.8,1.2,0.8,2.2
			c0,0.9-0.3,1.6-0.8,2.1c-0.5,0.5-1.2,0.8-2.2,0.8c-1,0-1.7-0.3-2.2-0.8C182.3,308.2,182,307.5,182,306.6z M187.6,338h-5.3v-24.8
			h5.3V338z"/>
		<path class="st2" d="M206.1,338.5c-3.8,0-6.6-1.1-8.6-3.3c-2-2.2-2.9-5.3-2.9-9.4c0-4.2,1-7.4,3.1-9.6c2-2.2,5-3.4,8.9-3.4
			c2.6,0,5,0.5,7.1,1.5l-1.6,4.2c-2.2-0.9-4.1-1.3-5.5-1.3c-4.3,0-6.4,2.9-6.4,8.6c0,2.8,0.5,4.9,1.6,6.3c1.1,1.4,2.6,2.1,4.7,2.1
			c2.4,0,4.6-0.6,6.7-1.8v4.6c-0.9,0.6-2,1-3,1.2C208.9,338.4,207.6,338.5,206.1,338.5z"/>
		<path class="st2" d="M216,313.2h5.8l5.1,14.1c0.8,2,1.3,3.9,1.5,5.7h0.2c0.1-0.8,0.4-1.8,0.7-3c0.4-1.2,2.3-6.8,5.7-16.7h5.7
			L230,341.3c-1.9,5.2-5.2,7.7-9.7,7.7c-1.2,0-2.3-0.1-3.4-0.4v-4.2c0.8,0.2,1.7,0.3,2.7,0.3c2.5,0,4.3-1.5,5.4-4.4l0.9-2.3
			L216,313.2z"/>
		<path class="st2" d="M255.4,338.5c-3.8,0-6.6-1.1-8.6-3.3c-2-2.2-2.9-5.3-2.9-9.4c0-4.2,1-7.4,3.1-9.6c2-2.2,5-3.4,8.9-3.4
			c2.6,0,5,0.5,7.1,1.5l-1.6,4.2c-2.2-0.9-4.1-1.3-5.5-1.3c-4.3,0-6.4,2.9-6.4,8.6c0,2.8,0.5,4.9,1.6,6.3c1.1,1.4,2.6,2.1,4.7,2.1
			c2.4,0,4.6-0.6,6.7-1.8v4.6c-0.9,0.6-2,1-3,1.2C258.2,338.4,256.9,338.5,255.4,338.5z"/>
		<path class="st2" d="M274.3,338H269v-34.9h5.3V338z"/>
		<path class="st2" d="M293.6,338.5c-3.9,0-6.9-1.1-9.1-3.4c-2.2-2.3-3.3-5.4-3.3-9.3c0-4.1,1-7.2,3-9.6c2-2.3,4.8-3.5,8.3-3.5
			c3.3,0,5.9,1,7.8,3c1.9,2,2.9,4.7,2.9,8.2v2.9h-16.6c0.1,2.4,0.7,4.3,2,5.6c1.2,1.3,3,1.9,5.2,1.9c1.5,0,2.8-0.1,4.1-0.4
			c1.3-0.3,2.6-0.7,4.1-1.4v4.3c-1.3,0.6-2.6,1-3.9,1.3C296.8,338.4,295.3,338.5,293.6,338.5z M292.7,316.7c-1.7,0-3,0.5-4,1.6
			c-1,1.1-1.6,2.6-1.8,4.6h11.3c0-2.1-0.5-3.6-1.5-4.7C295.7,317.3,294.3,316.7,292.7,316.7z"/>
	</g>
</g>
</svg>
