<?xml version="1.0" encoding="utf-8"?>
<!-- Generator: Adobe Illustrator 24.1.0, SVG Export Plug-In . SVG Version: 6.00 Build 0)  -->
<svg version="1.1" id="Layer_1" xmlns="http://www.w3.org/2000/svg" xmlns:xlink="http://www.w3.org/1999/xlink" x="0px" y="0px"
	 viewBox="0 0 300 400" style="enable-background:new 0 0 300 400;" xml:space="preserve">
<style type="text/css">
	.st0{fill:#FFD561;}
	.st1{fill:#283182;}
	.st2{fill:#45505E;}
</style>
<g>
	<g>
		<path class="st0" d="M255.7,190.1c0,5.5-4.5,10-10,10H54.5c-5.5,0-10-4.5-10-10l0,0c0-5.5,4.5-10,10-10h191.2
			C251.2,180.1,255.7,184.5,255.7,190.1L255.7,190.1z"/>
	</g>
	<g>
		<path class="st1" d="M222.2,188.5c0,4.1,3.3,7.4,7.5,7.4c4.1,0,7.4-3.3,7.4-7.4c0-4.1-3.3-7.4-7.4-7.4
			C225.5,181.1,222.2,184.4,222.2,188.5z M231.5,188.5c0,1.1-0.9,1.9-1.9,1.9c-1.1,0-1.9-0.9-1.9-1.9c0-1.1,0.9-1.9,1.9-1.9
			C230.7,186.6,231.5,187.5,231.5,188.5z"/>
		<path class="st1" d="M269.4,37.6l-1.3-2.7c-1.4-2.8-4.3-4.6-7.4-4.6c-1.3,0-2.5,0.3-3.6,0.9l-48.8,24.1c-2,1-3.5,2.7-4.2,4.8
			c-0.7,2.1-0.6,4.3,0.4,6.3l1.3,2.7c1.4,2.8,4.3,4.6,7.4,4.6c1.3,0,2.5-0.3,3.6-0.9l12.9-6.4l-15.9,48.2c-0.5,1.4,0.3,3,1.8,3.5
			c0.3,0.1,0.6,0.1,0.9,0.1c1.2,0,2.2-0.7,2.6-1.9L236.7,63l4.7-2.3l-36.8,113.7H200l15-45.5c0.5-1.4-0.3-3-1.8-3.5
			c-1.4-0.5-3,0.3-3.5,1.8L194.3,174c0,0.1-0.1,0.2-0.1,0.3H44.1c-7.8,0-14.2,6.4-14.2,14.2c0,7.4,5.7,13.5,13,14.1v4.6
			c0,1.5,1.2,2.8,2.8,2.8h188.1c1.5,0,2.8-1.2,2.8-2.8v-4.9c6.6-1.2,11.5-7,11.5-13.9c0-7.6-6-13.8-13.5-14.1l-7.7-50.8l21.4-66.2
			l17.4-8.6c2-1,3.5-2.7,4.2-4.8C270.5,41.8,270.4,39.6,269.4,37.6z M242.6,188.4c0,4.8-3.9,8.7-8.7,8.7h-27.3h-2h-99.4
			c-1.5,0-2.8,1.2-2.8,2.8c0,1.5,1.2,2.8,2.8,2.8h99.4h2H231v1.9H48.4v-1.8h43.3c1.5,0,2.8-1.2,2.8-2.8c0-1.5-1.2-2.8-2.8-2.8H44.1
			c-4.8,0-8.7-3.9-8.7-8.7c0-4.8,3.9-8.7,8.7-8.7h175.4c1.5,0,2.8-1.2,2.8-2.8c0-1.5-1.2-2.8-2.8-2.8h-9.2l12.7-39.2l6,39.4
			c-0.9,0.4-1.6,1.4-1.6,2.5c0,1.5,1.2,2.8,2.8,2.8h2c0,0,0,0,0,0c0,0,0,0,0,0h1.7C238.7,179.8,242.6,183.7,242.6,188.4z
			 M264.6,42.2c-0.2,0.7-0.7,1.3-1.4,1.6L250.6,50l-6.9,3.4l-4.7,2.3l-6.9,3.4l-17.8,8.8c-1.3,0.7-3.1,0.1-3.7-1.3l-1.3-2.7
			c-0.3-0.7-0.4-1.4-0.1-2.1c0.2-0.7,0.7-1.3,1.4-1.6l48.8-24.1c0.4-0.2,0.8-0.3,1.2-0.3c1.1,0,2,0.6,2.5,1.5l1.3,2.7
			C264.8,40.7,264.8,41.5,264.6,42.2z"/>
		<path class="st1" d="M46.6,181.1c-4.1,0-7.5,3.3-7.5,7.4c0,4.1,3.3,7.4,7.5,7.4c4.1,0,7.4-3.3,7.4-7.4
			C54.1,184.4,50.7,181.1,46.6,181.1z M46.6,190.5c-1.1,0-1.9-0.9-1.9-1.9c0-1.1,0.9-1.9,1.9-1.9c1.1,0,1.9,0.9,1.9,1.9
			C48.5,189.6,47.7,190.5,46.6,190.5z"/>
	</g>
</g>
<g>
	<g>
		<path class="st2" d="M56.6,317.3h-5.4v-28.2h-9.7v-4.6h24.7v4.6h-9.7V317.3z"/>
		<path class="st2" d="M84.2,292c1.1,0,1.9,0.1,2.6,0.2l-0.5,4.9c-0.7-0.2-1.5-0.3-2.3-0.3c-2.1,0-3.8,0.7-5.1,2.1
			c-1.3,1.4-2,3.2-2,5.4v13h-5.3v-24.8h4.1l0.7,4.4h0.3c0.8-1.5,1.9-2.7,3.2-3.5C81.2,292.4,82.7,292,84.2,292z"/>
		<path class="st2" d="M103.2,317.8c-3.9,0-6.9-1.1-9.1-3.4c-2.2-2.3-3.3-5.4-3.3-9.3c0-4.1,1-7.2,3-9.6c2-2.3,4.8-3.5,8.3-3.5
			c3.3,0,5.9,1,7.8,3c1.9,2,2.9,4.7,2.9,8.2v2.9H96.3c0.1,2.4,0.7,4.3,2,5.6c1.2,1.3,3,1.9,5.2,1.9c1.5,0,2.8-0.1,4.1-0.4
			c1.3-0.3,2.6-0.7,4.1-1.4v4.3c-1.3,0.6-2.6,1-3.9,1.3C106.4,317.6,104.9,317.8,103.2,317.8z M102.2,296c-1.7,0-3,0.5-4,1.6
			c-1,1.1-1.6,2.6-1.8,4.6h11.3c0-2.1-0.5-3.6-1.5-4.7C105.2,296.5,103.9,296,102.2,296z"/>
		<path class="st2" d="M135.3,317.3l-1.1-3.5h-0.2c-1.2,1.5-2.4,2.5-3.6,3.1c-1.2,0.5-2.8,0.8-4.7,0.8c-2.4,0-4.3-0.7-5.7-2
			c-1.4-1.3-2.1-3.2-2.1-5.6c0-2.6,1-4.5,2.9-5.8s4.8-2,8.7-2.1l4.3-0.1v-1.3c0-1.6-0.4-2.8-1.1-3.6c-0.7-0.8-1.9-1.2-3.4-1.2
			c-1.3,0-2.5,0.2-3.7,0.6s-2.3,0.8-3.4,1.3l-1.7-3.8c1.3-0.7,2.8-1.2,4.4-1.6c1.6-0.4,3.1-0.6,4.5-0.6c3.2,0,5.5,0.7,7.2,2.1
			c1.6,1.4,2.4,3.5,2.4,6.5v16.7H135.3z M127.5,313.7c1.9,0,3.5-0.5,4.6-1.6c1.2-1.1,1.7-2.6,1.7-4.5v-2.2l-3.2,0.1
			c-2.5,0.1-4.3,0.5-5.4,1.2c-1.1,0.7-1.7,1.9-1.7,3.4c0,1.1,0.3,2,1,2.6C125.2,313.4,126.1,313.7,127.5,313.7z"/>
		<path class="st2" d="M155.8,317.8c-3.1,0-5.5-1.1-7.3-3.4s-2.6-5.4-2.6-9.5c0-4.1,0.9-7.2,2.6-9.5c1.8-2.3,4.2-3.4,7.3-3.4
			c3.3,0,5.8,1.2,7.5,3.6h0.3c-0.3-1.8-0.4-3.2-0.4-4.2v-9.1h5.3v34.9h-4.1l-0.9-3.3h-0.2C161.5,316.5,159,317.8,155.8,317.8z
			 M157.2,313.5c2.2,0,3.8-0.6,4.7-1.8c1-1.2,1.5-3.2,1.5-5.9V305c0-3.1-0.5-5.4-1.5-6.7c-1-1.3-2.6-2-4.8-2c-1.9,0-3.3,0.8-4.3,2.3
			c-1,1.5-1.5,3.6-1.5,6.4c0,2.8,0.5,4.9,1.5,6.3C153.8,312.8,155.2,313.5,157.2,313.5z"/>
		<path class="st2" d="M197.9,317.3h-5.3V302c0-1.9-0.4-3.3-1.1-4.3c-0.7-0.9-1.8-1.4-3.4-1.4c-2,0-3.5,0.7-4.5,2
			c-1,1.3-1.4,3.5-1.4,6.6v12.4H177v-24.8h4.1l0.7,3.3h0.3c0.7-1.2,1.7-2.1,3-2.7c1.3-0.6,2.8-1,4.3-1c3.8,0,6.3,1.3,7.6,3.9h0.4
			c0.7-1.2,1.8-2.2,3.1-2.9c1.3-0.7,2.9-1,4.6-1c3,0,5.1,0.7,6.5,2.2c1.4,1.5,2,3.8,2,6.9v16.2h-5.3V302c0-1.9-0.4-3.3-1.1-4.3
			c-0.7-0.9-1.9-1.4-3.4-1.4c-2.1,0-3.6,0.6-4.5,1.9c-1,1.3-1.4,3.2-1.4,5.9V317.3z"/>
		<path class="st2" d="M221.5,285.9c0-0.9,0.3-1.7,0.8-2.2c0.5-0.5,1.3-0.8,2.2-0.8c0.9,0,1.7,0.3,2.2,0.8c0.5,0.5,0.8,1.2,0.8,2.2
			c0,0.9-0.3,1.6-0.8,2.1c-0.5,0.5-1.2,0.8-2.2,0.8c-1,0-1.7-0.3-2.2-0.8C221.8,287.5,221.5,286.8,221.5,285.9z M227.1,317.3h-5.3
			v-24.8h5.3V317.3z"/>
		<path class="st2" d="M240.9,317.3h-5.3v-34.9h5.3V317.3z"/>
		<path class="st2" d="M254.6,317.3h-5.3v-34.9h5.3V317.3z"/>
		<path class="st2" d="M85,369.3h-5.8l-5.6-19.6c-0.2-0.9-0.5-2.1-0.9-3.7c-0.4-1.6-0.6-2.7-0.7-3.4c-0.1,1-0.4,2.2-0.7,3.7
			c-0.3,1.5-0.6,2.7-0.8,3.4L65,369.3h-5.8l-4.2-16.4l-4.3-16.4h5.5l4.7,19.1c0.7,3.1,1.3,5.8,1.6,8.1c0.2-1.3,0.4-2.7,0.7-4.3
			c0.3-1.6,0.6-2.8,0.9-3.8l5.3-19.2h5.3l5.5,19.3c0.5,1.8,1.1,4.4,1.7,8c0.2-2.1,0.8-4.9,1.6-8.2l4.7-19.1h5.4L85,369.3z"/>
		<path class="st2" d="M120.6,356.8c0,4.1-1,7.2-3.1,9.5c-2.1,2.3-5,3.4-8.7,3.4c-2.3,0-4.4-0.5-6.2-1.6c-1.8-1-3.2-2.6-4.1-4.5
			c-1-2-1.4-4.2-1.4-6.8c0-4,1-7.2,3.1-9.4c2.1-2.3,5-3.4,8.7-3.4c3.6,0,6.4,1.2,8.5,3.5C119.5,349.8,120.6,352.9,120.6,356.8z
			 M102.5,356.8c0,5.7,2.1,8.6,6.4,8.6c4.2,0,6.3-2.9,6.3-8.6c0-5.7-2.1-8.5-6.3-8.5c-2.2,0-3.8,0.7-4.8,2.2
			C103,352,102.5,354.1,102.5,356.8z"/>
		<path class="st2" d="M140.1,344c1.1,0,1.9,0.1,2.6,0.2l-0.5,4.9c-0.7-0.2-1.5-0.3-2.3-0.3c-2.1,0-3.8,0.7-5.1,2.1
			c-1.3,1.4-2,3.2-2,5.4v13h-5.3v-24.8h4.1l0.7,4.4h0.3c0.8-1.5,1.9-2.7,3.2-3.5C137.2,344.4,138.6,344,140.1,344z"/>
		<path class="st2" d="M153.4,356.2l3-3.7l7.5-8h6.1l-10,10.7l10.6,14.2h-6.2l-8-10.9l-2.9,2.4v8.5h-5.2v-34.9h5.2v17l-0.3,4.8
			H153.4z"/>
		<path class="st2" d="M197.5,356.8c0,4.1-1,7.2-3.1,9.5c-2.1,2.3-5,3.4-8.7,3.4c-2.3,0-4.4-0.5-6.2-1.6c-1.8-1-3.2-2.6-4.1-4.5
			c-1-2-1.4-4.2-1.4-6.8c0-4,1-7.2,3.1-9.4c2.1-2.3,5-3.4,8.7-3.4c3.6,0,6.4,1.2,8.5,3.5C196.5,349.8,197.5,352.9,197.5,356.8z
			 M179.5,356.8c0,5.7,2.1,8.6,6.4,8.6c4.2,0,6.3-2.9,6.3-8.6c0-5.7-2.1-8.5-6.3-8.5c-2.2,0-3.8,0.7-4.8,2.2
			C180,352,179.5,354.1,179.5,356.8z"/>
		<path class="st2" d="M222.1,369.3l-0.7-3.3H221c-0.7,1.2-1.8,2.1-3.1,2.7c-1.4,0.7-2.9,1-4.6,1c-3,0-5.3-0.7-6.7-2.2
			c-1.5-1.5-2.2-3.8-2.2-6.8v-16.2h5.3v15.3c0,1.9,0.4,3.3,1.2,4.3c0.8,1,2,1.4,3.7,1.4c2.2,0,3.8-0.7,4.9-2c1-1.3,1.6-3.5,1.6-6.7
			v-12.4h5.3v24.8H222.1z"/>
		<path class="st2" d="M243.9,365.5c1.3,0,2.6-0.2,3.9-0.6v4c-0.6,0.3-1.3,0.5-2.3,0.6c-0.9,0.2-1.9,0.3-2.9,0.3
			c-5,0-7.5-2.6-7.5-7.9v-13.4h-3.4v-2.3l3.6-1.9l1.8-5.3h3.3v5.5h7.1v4h-7.1v13.3c0,1.3,0.3,2.2,1,2.8
			C242,365.2,242.9,365.5,243.9,365.5z"/>
	</g>
</g>
</svg>
