<?xml version="1.0" encoding="utf-8"?>
<!-- Generator: Adobe Illustrator 24.1.0, SVG Export Plug-In . SVG Version: 6.00 Build 0)  -->
<svg version="1.1" id="Layer_1" xmlns="http://www.w3.org/2000/svg" xmlns:xlink="http://www.w3.org/1999/xlink" x="0px" y="0px"
	 viewBox="0 0 300 400" style="enable-background:new 0 0 300 400;" xml:space="preserve">
<style type="text/css">
	.st0{fill:#C9E084;}
	.st1{fill:#283182;}
	.st2{fill:#45505E;}
</style>
<g>
	<g>
		<path class="st0" d="M196.6,201.1l-8,24.4c-2.9,8.9,1.9,18.5,10.8,21.4l1.5,0.5c8.9,2.9,18.5-1.9,21.4-10.8l8-24.4L196.6,201.1z"
			/>
	</g>
	<g>
		<path class="st0" d="M78,104.3v86.8h102.4v-86.8H78z M142.7,171.2c0,0-24.8-3.2-31.8-15.3c-7-12.1,3.3-34.1,3.3-34.1
			s24.2,2.1,31.1,14.2C152.3,148.1,142.7,171.2,142.7,171.2z"/>
	</g>
	<g>
		<path class="st1" d="M152.7,64.4v-2.7h1c1.6,0,2.9-1.3,3-2.9c0-0.1,0-0.2,0-0.4V45.6c0-5.6-4.1-10.2-9-10.2H93.4
			c-5,0-9,4.6-9,10.2v12.8c0,0.1,0,0.2,0,0.4c0.1,1.6,1.4,2.9,3,2.9h1v2.9c-6.9,0.6-12.4,3-16.5,7.1c-8,8.1-8,20.3-7.9,25l0,118.9
			c0,7.6,5.4,13.7,12.1,13.7h89c6.7,0,12.1-6.2,12.1-13.7V96.9c0-4.9,0-18-8.1-26.1C164.9,66.7,159.4,64.6,152.7,64.4z M109.5,61.7
			c1.7,0,3-1.3,3-3c0-1.7-1.3-3-3-3H90.3V45.6c0-2.3,1.4-4.2,3.1-4.2h54.2c1.7,0,3.1,1.9,3.1,4.2l0,10.2h-26.8c-1.7,0-3,1.3-3,3
			c0,1.6,1.3,3,3,3h22.9v2.7H94.3v-2.7H109.5z M76.1,75.9c3.6-3.7,9-5.5,16.1-5.5h59.7c5.5,0,9.8,1.6,12.9,4.7
			c5.1,5.1,6.1,13.3,6.3,18.5H70C70.1,88.6,71.1,81,76.1,75.9z M69.9,196h11.9c1.6,0,3-1.3,3-3c0-1.6-1.3-3-3-3H69.9v-81.7h74.7
			c1.7,0,3-1.3,3-3c0-1.6-1.3-3-3-3H69.9v-2.8h101.2v2.8H159c-1.7,0-3,1.3-3,3c0,1.7,1.3,3,3,3h12.1V190h-75c-1.6,0-3,1.3-3,3
			c0,1.7,1.3,3,3,3h75v3.4H69.9V196z M165,223.3H76c-3.3,0-6.1-3.6-6.1-7.8v-10.3h101.2v10.3C171.1,219.8,168.3,223.3,165,223.3z"/>
		<path class="st1" d="M235,172c-2.4-4.7-6.5-8.3-11.6-9.9l-1.5-0.5c-2-0.7-4.1-1-6.2-1c-8.6,0-16.2,5.5-18.9,13.7l-16,48.8
			c-3.4,10.4,2.3,21.7,12.7,25.1l1.5,0.5c2,0.7,4.1,1,6.2,1c8.6,0,16.2-5.5,18.9-13.7l16-48.8C237.8,182.2,237.4,176.8,235,172z
			 M214.4,234.2c-1.9,5.7-7.2,9.6-13.3,9.6c-1.5,0-2.9-0.2-4.3-0.7l-1.5-0.5c-7.3-2.4-11.3-10.3-8.9-17.6l7.1-21.6l28,9.2
			L214.4,234.2z M230.4,185.4l-7.1,21.6l-28-9.2l7.1-21.6c1.9-5.7,7.2-9.6,13.3-9.6c1.5,0,2.9,0.2,4.3,0.7l1.5,0.5
			c3.5,1.2,6.4,3.6,8.1,7C231.3,178.1,231.6,181.9,230.4,185.4z"/>
		<path class="st1" d="M133.9,175.8c0.1,0,0.3,0,0.4,0c0,0,0,0,0,0c0,0,0,0,0,0c0.2,0,0.5,0,0.7-0.1c0,0,0.1,0,0.1,0
			c0.2-0.1,0.4-0.2,0.6-0.3c0,0,0,0,0.1,0c0,0,0,0,0,0c0.2-0.1,0.3-0.2,0.4-0.3l0,0c0.1-0.1,0.3-0.3,0.4-0.4c0,0,0-0.1,0.1-0.1
			c0.1-0.1,0.2-0.2,0.2-0.4c0,0,0-0.1,0.1-0.1c0,0,0-0.1,0.1-0.1c0.4-1,10.1-24.6,2.5-37.8c-7.7-13.3-32.4-15.6-33.5-15.7
			c-1.2-0.1-2.4,0.6-3,1.7c-0.4,1-10.8,23.5-3.2,36.8C107.6,172.2,132.9,175.7,133.9,175.8z M107.7,126.7c7.4,1,22.1,4.5,26.7,12.5
			c3.9,6.8,1.7,18.6-0.7,26.6l-14.9-25.8c-0.8-1.4-2.7-1.9-4.1-1.1c-1.4,0.8-1.9,2.7-1.1,4.1l14.9,25.8c-8.1-1.9-19.5-5.9-23.4-12.7
			C100.5,148.1,104.8,133.6,107.7,126.7z"/>
	</g>
</g>
<g>
	<g>
		<path class="st2" d="M23.1,344.7c0,2.9-1.1,5.2-3.2,6.9c-2.1,1.7-5,2.5-8.7,2.5c-3.7,0-6.8-0.6-9.1-1.7v-5.1
			c1.5,0.7,3.1,1.3,4.8,1.7c1.7,0.4,3.3,0.6,4.7,0.6c2.1,0,3.7-0.4,4.7-1.2c1-0.8,1.5-1.9,1.5-3.3c0-1.2-0.5-2.3-1.4-3.1
			c-0.9-0.9-2.8-1.9-5.7-3c-3-1.2-5.1-2.6-6.3-4.2c-1.2-1.6-1.8-3.4-1.8-5.6c0-2.7,1-4.9,2.9-6.5c1.9-1.6,4.6-2.4,7.8-2.4
			c3.1,0,6.3,0.7,9.4,2.1l-1.7,4.4c-2.9-1.2-5.5-1.8-7.8-1.8c-1.7,0-3.1,0.4-4,1.1c-0.9,0.8-1.3,1.8-1.3,3c0,0.9,0.2,1.6,0.5,2.2
			c0.4,0.6,1,1.2,1.8,1.7c0.8,0.5,2.3,1.3,4.4,2.1c2.4,1,4.2,1.9,5.3,2.8c1.1,0.9,1.9,1.8,2.5,2.9C22.8,341.9,23.1,343.2,23.1,344.7
			z"/>
		<path class="st2" d="M47.3,353.6l-0.7-3.3h-0.3c-0.7,1.2-1.8,2.1-3.1,2.7c-1.4,0.7-2.9,1-4.6,1c-3,0-5.3-0.7-6.7-2.2
			c-1.5-1.5-2.2-3.8-2.2-6.8v-16.2h5.3v15.3c0,1.9,0.4,3.3,1.2,4.3c0.8,1,2,1.4,3.7,1.4c2.2,0,3.8-0.7,4.9-2c1-1.3,1.6-3.5,1.6-6.7
			v-12.4h5.3v24.8H47.3z"/>
		<path class="st2" d="M72.5,354.1c-3.1,0-5.6-1.1-7.3-3.4h-0.3c0.2,2.1,0.3,3.4,0.3,3.8v10.2h-5.3v-35.9h4.3
			c0.1,0.5,0.4,1.6,0.7,3.3h0.3c1.6-2.5,4.1-3.8,7.4-3.8c3.1,0,5.5,1.1,7.2,3.4c1.7,2.2,2.6,5.4,2.6,9.5c0,4.1-0.9,7.2-2.6,9.5
			C78.1,352.9,75.6,354.1,72.5,354.1z M71.3,332.6c-2.1,0-3.6,0.6-4.6,1.8c-1,1.2-1.4,3.2-1.4,5.9v0.8c0,3,0.5,5.2,1.4,6.6
			c1,1.4,2.5,2,4.7,2c1.8,0,3.2-0.7,4.2-2.2c1-1.5,1.5-3.6,1.5-6.4c0-2.8-0.5-4.9-1.5-6.3C74.6,333.3,73.2,332.6,71.3,332.6z"/>
		<path class="st2" d="M102.1,354.1c-3.1,0-5.6-1.1-7.3-3.4h-0.3c0.2,2.1,0.3,3.4,0.3,3.8v10.2h-5.3v-35.9h4.3
			c0.1,0.5,0.4,1.6,0.7,3.3h0.3c1.6-2.5,4.1-3.8,7.4-3.8c3.1,0,5.5,1.1,7.2,3.4c1.7,2.2,2.6,5.4,2.6,9.5c0,4.1-0.9,7.2-2.6,9.5
			C107.6,352.9,105.2,354.1,102.1,354.1z M100.8,332.6c-2.1,0-3.6,0.6-4.6,1.8s-1.4,3.2-1.4,5.9v0.8c0,3,0.5,5.2,1.4,6.6
			c1,1.4,2.5,2,4.7,2c1.8,0,3.2-0.7,4.2-2.2c1-1.5,1.5-3.6,1.5-6.4c0-2.8-0.5-4.9-1.5-6.3C104.2,333.3,102.7,332.6,100.8,332.6z"/>
		<path class="st2" d="M124.4,353.6h-5.3v-34.9h5.3V353.6z"/>
		<path class="st2" d="M143.7,354.1c-3.9,0-6.9-1.1-9.1-3.4c-2.2-2.3-3.3-5.4-3.3-9.3c0-4.1,1-7.2,3-9.6c2-2.3,4.8-3.5,8.3-3.5
			c3.3,0,5.9,1,7.8,3c1.9,2,2.9,4.7,2.9,8.2v2.9h-16.6c0.1,2.4,0.7,4.3,2,5.6c1.2,1.3,3,1.9,5.2,1.9c1.5,0,2.8-0.1,4.1-0.4
			c1.3-0.3,2.6-0.7,4.1-1.4v4.3c-1.3,0.6-2.6,1-3.9,1.3C146.9,353.9,145.4,354.1,143.7,354.1z M142.7,332.3c-1.7,0-3,0.5-4,1.6
			c-1,1.1-1.6,2.6-1.8,4.6h11.3c0-2.1-0.5-3.6-1.5-4.7C145.7,332.8,144.4,332.3,142.7,332.3z"/>
		<path class="st2" d="M181.2,353.6h-5.3v-15.3c0-1.9-0.4-3.3-1.1-4.3c-0.7-0.9-1.8-1.4-3.4-1.4c-2,0-3.5,0.7-4.5,2
			c-1,1.3-1.4,3.5-1.4,6.6v12.4h-5.3v-24.8h4.1l0.7,3.3h0.3c0.7-1.2,1.7-2.1,3-2.7c1.3-0.6,2.8-1,4.3-1c3.8,0,6.3,1.3,7.6,3.9h0.4
			c0.7-1.2,1.8-2.2,3.1-2.9c1.3-0.7,2.9-1,4.6-1c3,0,5.1,0.7,6.5,2.2c1.4,1.5,2,3.8,2,6.9v16.2h-5.3v-15.3c0-1.9-0.4-3.3-1.1-4.3
			c-0.7-0.9-1.9-1.4-3.4-1.4c-2.1,0-3.6,0.6-4.5,1.9c-1,1.3-1.4,3.2-1.4,5.9V353.6z"/>
		<path class="st2" d="M216,354.1c-3.9,0-6.9-1.1-9.1-3.4c-2.2-2.3-3.3-5.4-3.3-9.3c0-4.1,1-7.2,3-9.6c2-2.3,4.8-3.5,8.3-3.5
			c3.3,0,5.9,1,7.8,3c1.9,2,2.9,4.7,2.9,8.2v2.9h-16.6c0.1,2.4,0.7,4.3,2,5.6c1.2,1.3,3,1.9,5.2,1.9c1.5,0,2.8-0.1,4.1-0.4
			c1.3-0.3,2.6-0.7,4.1-1.4v4.3c-1.3,0.6-2.6,1-3.9,1.3S217.7,354.1,216,354.1z M215,332.3c-1.7,0-3,0.5-4,1.6
			c-1,1.1-1.6,2.6-1.8,4.6h11.3c0-2.1-0.5-3.6-1.5-4.7C218,332.8,216.7,332.3,215,332.3z"/>
		<path class="st2" d="M254.4,353.6h-5.3v-15.3c0-1.9-0.4-3.3-1.2-4.3c-0.8-0.9-2-1.4-3.7-1.4c-2.2,0-3.9,0.7-4.9,2
			c-1,1.3-1.5,3.5-1.5,6.6v12.4h-5.3v-24.8h4.1l0.7,3.3h0.3c0.7-1.2,1.8-2.1,3.2-2.7c1.4-0.6,2.9-1,4.6-1c6,0,8.9,3,8.9,9.1V353.6z"
			/>
		<path class="st2" d="M272,349.8c1.3,0,2.6-0.2,3.9-0.6v4c-0.6,0.3-1.3,0.5-2.3,0.6c-0.9,0.2-1.9,0.3-2.9,0.3c-5,0-7.5-2.6-7.5-7.9
			v-13.4h-3.4v-2.3l3.6-1.9l1.8-5.3h3.3v5.5h7.1v4h-7.1v13.3c0,1.3,0.3,2.2,1,2.8C270.1,349.5,270.9,349.8,272,349.8z"/>
		<path class="st2" d="M298.4,346.5c0,2.4-0.9,4.3-2.7,5.6c-1.8,1.3-4.3,1.9-7.6,1.9c-3.3,0-6-0.5-8-1.5V348c2.9,1.3,5.6,2,8.2,2
			c3.2,0,4.9-1,4.9-2.9c0-0.6-0.2-1.2-0.5-1.6c-0.4-0.4-1-0.9-1.8-1.3c-0.8-0.4-2-1-3.4-1.5c-2.9-1.1-4.8-2.2-5.8-3.3
			c-1-1.1-1.5-2.5-1.5-4.3c0-2.1,0.9-3.8,2.6-5c1.7-1.2,4-1.8,7-1.8c2.9,0,5.7,0.6,8.3,1.8l-1.7,4c-2.7-1.1-4.9-1.7-6.8-1.7
			c-2.8,0-4.2,0.8-4.2,2.4c0,0.8,0.4,1.4,1.1,2c0.7,0.5,2.3,1.3,4.8,2.2c2.1,0.8,3.5,1.5,4.5,2.2c0.9,0.7,1.6,1.4,2.1,2.3
			C298.2,344.3,298.4,345.3,298.4,346.5z"/>
	</g>
</g>
</svg>
