<?xml version="1.0" encoding="utf-8"?>
<!-- Generator: Adobe Illustrator 24.1.0, SVG Export Plug-In . SVG Version: 6.00 Build 0)  -->
<svg version="1.1" id="Layer_1" xmlns="http://www.w3.org/2000/svg" xmlns:xlink="http://www.w3.org/1999/xlink" x="0px" y="0px"
	 viewBox="0 0 300 400" style="enable-background:new 0 0 300 400;" xml:space="preserve">
<style type="text/css">
	.st0{fill:#C9E084;}
	.st1{fill:#283182;}
	.st2{fill:#45505E;}
</style>
<g>
	<g>
		<path class="st0" d="M247,230.5c0,4.1-3.4,7.5-7.5,7.5h-11.8c-4.1,0-7.5-3.4-7.5-7.5v-64.1c0-4.1,3.4-7.5,7.5-7.5h11.8
			c4.1,0,7.5,3.4,7.5,7.5V230.5z"/>
	</g>
	<g>
		<path class="st0" d="M94.8,270.6c0,4.1-3.4,7.5-7.5,7.5H75.6c-4.1,0-7.5-3.4-7.5-7.5v-64.1c0-4.1,3.4-7.5,7.5-7.5h11.8
			c4.1,0,7.5,3.4,7.5,7.5V270.6z"/>
	</g>
	<g>
		<path class="st1" d="M79,192.8h-3.1v-82.2c0-4.8,1-9.5,2.9-13.8c0.7-1.6,0-3.4-1.6-4.1c-1.6-0.7-3.4,0-4.1,1.6
			c-2.3,5.2-3.5,10.7-3.5,16.4v82.2h-2.5c-5.8,0-10.6,4.7-10.6,10.6v64.1c0,5.8,4.7,10.6,10.6,10.6H79c5.8,0,10.6-4.7,10.6-10.6
			v-64.1C89.6,197.6,84.8,192.8,79,192.8z M62.8,211.2h20.5v49.5H62.8V211.2z M67.1,199H79c2.4,0,4.4,2,4.4,4.4v1.6H62.8v-1.6
			C62.8,201,64.7,199,67.1,199z M79,271.9H67.1c-2.4,0-4.4-2-4.4-4.4v-0.6h20.5v0.6C83.3,269.9,81.4,271.9,79,271.9z"/>
		<path class="st1" d="M152.4,70.2H125v-3.7c0-8,2.9-15.9,8.1-22c6.6-7.8,16.1-12.2,26.2-12.2h27.7c12.7,0,24.3,7,30.3,18.4
			c0.8,1.5,2.7,2.1,4.2,1.3c1.5-0.8,2.1-2.7,1.3-4.2C215.7,34.3,202,26,186.9,26h-27.7c-11.9,0-23.2,5.3-30.9,14.4c0,0,0,0,0,0
			c-6.2,7.3-9.5,16.5-9.5,26v3.7h-8.7c-9.8,0-19.3,3.6-26.7,10.1c-1.3,1.1-1.4,3.1-0.3,4.4c1.1,1.3,3.1,1.4,4.4,0.3
			c6.3-5.5,14.3-8.5,22.6-8.5h8.7v26.5c0,22.3,16.6,40.5,37,40.5s37-16.4,37-36.6C192.9,86.6,174.7,70.2,152.4,70.2z M155.8,137.1
			c-17,0-30.8-15.4-30.8-34.2V76.4h27.4c18.9,0,34.2,13.6,34.2,30.3C186.6,123.5,172.8,137.1,155.8,137.1z"/>
		<path class="st1" d="M231.2,154.5h-3.8V66.4c0-0.7,0-1.3,0-2c-0.1-1.7-1.5-3-3.3-3c-1.7,0.1-3,1.5-3,3.3c0,0.6,0,1.1,0,1.7v88.1
			h-1.8c-5.8,0-10.6,4.7-10.6,10.6v64.1c0,5.8,4.7,10.6,10.6,10.6h11.8c5.8,0,10.6-4.7,10.6-10.6v-64.1
			C241.8,159.3,237,154.5,231.2,154.5z M215,172.3h20.5v49.5H215V172.3z M219.3,160.8h11.8c2.4,0,4.4,2,4.4,4.4v0.9H215v-0.9
			C215,162.7,216.9,160.8,219.3,160.8z M231.2,233.6h-11.8c-2.4,0-4.4-2-4.4-4.4V228h20.5v1.2C235.5,231.6,233.6,233.6,231.2,233.6z
			"/>
	</g>
</g>
<g>
	<g>
		<path class="st2" d="M29.5,372.2c-1.5,0-2.7-0.2-3.7-0.6v-4.5c1.3,0.3,2.4,0.5,3.3,0.5c2.9,0,4.4-1.9,4.4-5.6v-31.8h5.4v31.6
			c0,3.4-0.8,5.9-2.4,7.7C34.9,371.3,32.6,372.2,29.5,372.2z"/>
		<path class="st2" d="M65.3,363l-0.7-3.3h-0.3c-0.7,1.2-1.8,2.1-3.1,2.7c-1.4,0.7-2.9,1-4.6,1c-3,0-5.3-0.7-6.7-2.2
			c-1.5-1.5-2.2-3.8-2.2-6.8v-16.2h5.3v15.3c0,1.9,0.4,3.3,1.2,4.3c0.8,1,2,1.4,3.7,1.4c2.2,0,3.8-0.7,4.9-2c1-1.3,1.6-3.5,1.6-6.7
			v-12.4h5.3V363H65.3z"/>
		<path class="st2" d="M98.8,363h-5.3v-15.3c0-1.9-0.4-3.3-1.1-4.3c-0.7-0.9-1.8-1.4-3.4-1.4c-2,0-3.5,0.7-4.5,2
			c-1,1.3-1.4,3.5-1.4,6.6V363h-5.3v-24.8H82l0.7,3.3H83c0.7-1.2,1.7-2.1,3-2.7c1.3-0.6,2.8-1,4.3-1c3.8,0,6.3,1.3,7.6,3.9h0.4
			c0.7-1.2,1.8-2.2,3.1-2.9s2.9-1,4.6-1c3,0,5.1,0.7,6.5,2.2c1.4,1.5,2,3.8,2,6.9V363h-5.3v-15.3c0-1.9-0.4-3.3-1.1-4.3
			c-0.7-0.9-1.9-1.4-3.4-1.4c-2.1,0-3.6,0.6-4.5,1.9c-1,1.3-1.4,3.2-1.4,5.9V363z"/>
		<path class="st2" d="M135.4,363.5c-3.1,0-5.6-1.1-7.3-3.4h-0.3c0.2,2.1,0.3,3.4,0.3,3.8v10.2h-5.3v-35.9h4.3
			c0.1,0.5,0.4,1.6,0.7,3.3h0.3c1.6-2.5,4.1-3.8,7.4-3.8c3.1,0,5.5,1.1,7.2,3.4c1.7,2.2,2.6,5.4,2.6,9.5s-0.9,7.2-2.6,9.5
			C140.9,362.4,138.5,363.5,135.4,363.5z M134.1,342.1c-2.1,0-3.6,0.6-4.6,1.8c-1,1.2-1.4,3.2-1.4,5.9v0.8c0,3,0.5,5.2,1.4,6.6
			c1,1.4,2.5,2,4.7,2c1.8,0,3.2-0.7,4.2-2.2c1-1.5,1.5-3.6,1.5-6.4c0-2.8-0.5-4.9-1.5-6.3C137.4,342.8,136,342.1,134.1,342.1z"/>
		<path class="st2" d="M171.2,349.9V363h-5.4v-32.8h9.3c4.2,0,7.4,0.8,9.4,2.4c2,1.6,3.1,4,3.1,7.2c0,4.1-2.1,7-6.4,8.7l9.3,14.5
			h-6.1l-7.9-13.1H171.2z M171.2,345.5h3.7c2.5,0,4.3-0.5,5.4-1.4c1.1-0.9,1.7-2.3,1.7-4.1c0-1.9-0.6-3.2-1.8-4
			c-1.2-0.8-3-1.2-5.5-1.2h-3.5V345.5z"/>
		<path class="st2" d="M217.6,350.6c0,4.1-1,7.2-3.1,9.5c-2.1,2.3-5,3.4-8.7,3.4c-2.3,0-4.4-0.5-6.2-1.6c-1.8-1-3.2-2.6-4.1-4.5
			c-1-2-1.4-4.2-1.4-6.8c0-4,1-7.2,3.1-9.4c2.1-2.3,5-3.4,8.7-3.4c3.6,0,6.4,1.2,8.5,3.5C216.5,343.5,217.6,346.7,217.6,350.6z
			 M199.5,350.6c0,5.7,2.1,8.6,6.4,8.6c4.2,0,6.3-2.9,6.3-8.6c0-5.7-2.1-8.5-6.3-8.5c-2.2,0-3.8,0.7-4.8,2.2
			C200,345.7,199.5,347.8,199.5,350.6z"/>
		<path class="st2" d="M237.2,363.5c-3.1,0-5.6-1.1-7.3-3.4h-0.3c0.2,2.1,0.3,3.4,0.3,3.8v10.2h-5.3v-35.9h4.3
			c0.1,0.5,0.4,1.6,0.7,3.3h0.3c1.6-2.5,4.1-3.8,7.4-3.8c3.1,0,5.5,1.1,7.2,3.4c1.7,2.2,2.6,5.4,2.6,9.5s-0.9,7.2-2.6,9.5
			C242.7,362.4,240.3,363.5,237.2,363.5z M235.9,342.1c-2.1,0-3.6,0.6-4.6,1.8c-1,1.2-1.4,3.2-1.4,5.9v0.8c0,3,0.5,5.2,1.4,6.6
			c1,1.4,2.5,2,4.7,2c1.8,0,3.2-0.7,4.2-2.2c1-1.5,1.5-3.6,1.5-6.4c0-2.8-0.5-4.9-1.5-6.3C239.2,342.8,237.8,342.1,235.9,342.1z"/>
		<path class="st2" d="M265,363.5c-3.9,0-6.9-1.1-9.1-3.4c-2.2-2.3-3.3-5.4-3.3-9.3c0-4.1,1-7.2,3-9.6c2-2.3,4.8-3.5,8.3-3.5
			c3.3,0,5.9,1,7.8,3c1.9,2,2.9,4.7,2.9,8.2v2.9h-16.6c0.1,2.4,0.7,4.3,2,5.6c1.2,1.3,3,1.9,5.2,1.9c1.5,0,2.8-0.1,4.1-0.4
			c1.3-0.3,2.6-0.7,4.1-1.4v4.3c-1.3,0.6-2.6,1-3.9,1.3C268.2,363.4,266.7,363.5,265,363.5z M264,341.7c-1.7,0-3,0.5-4,1.6
			c-1,1.1-1.6,2.6-1.8,4.6h11.3c0-2.1-0.5-3.6-1.5-4.7C267,342.3,265.7,341.7,264,341.7z"/>
	</g>
</g>
</svg>
