<?xml version="1.0" encoding="utf-8"?>
<!-- Generator: Adobe Illustrator 24.1.0, SVG Export Plug-In . SVG Version: 6.00 Build 0)  -->
<svg version="1.1" id="Layer_1" xmlns="http://www.w3.org/2000/svg" xmlns:xlink="http://www.w3.org/1999/xlink" x="0px" y="0px"
	 viewBox="0 0 300 400" style="enable-background:new 0 0 300 400;" xml:space="preserve">
<style type="text/css">
	.st0{fill:#FFD561;}
	.st1{fill:#283182;}
	.st2{fill:#45505E;}
</style>
<g>
	<g>
		<path class="st0" d="M225.3,21c-2-0.2-4.1-0.3-6.2-0.3c-33,0-59.7,26.7-59.7,59.7c0,33,26.7,59.7,59.7,59.7
			c16.7,0,31.7-6.8,42.6-17.9C202.3,119.4,183.2,58.6,225.3,21z"/>
	</g>
	<g>
		<path class="st1" d="M123.7,131.9l-21.1-46.7c-0.7-1.6-2.7-2.4-4.3-1.6c-1.6,0.7-2.4,2.7-1.6,4.3l20.3,45l-15.2,22.7
			c-1,1.5-0.6,3.5,0.9,4.5c0.6,0.4,1.2,0.5,1.8,0.5c1,0,2.1-0.5,2.7-1.4l16.1-24.2C124.1,134.1,124.2,132.9,123.7,131.9z"/>
		<path class="st1" d="M251.8,118.8c-0.5-1.2-1.6-2-2.9-2.1c-26-1.2-45.9-14.3-53.2-34.9c-7.3-20.6-0.1-43.8,18.8-60.6
			c1-0.9,1.3-2.2,0.9-3.4c-0.4-1.2-1.5-2.1-2.8-2.2c-2.2-0.2-4.4-0.3-6.6-0.3c-27.5,0-50.9,17.8-59.5,42.4c-8.3-2.9-17.1-4.3-26-4.3
			c-44.2,0-80.2,36-80.2,80.2c0,44.2,36,80.2,80.2,80.2c41.8,0,76.2-32.1,79.9-72.9c1.8,0.2,3.7,0.3,5.6,0.3c17,0,33-6.7,44.9-18.8
			C252,121.3,252.3,120,251.8,118.8z M120.8,207.3c-40.7,0-73.7-33.1-73.7-73.7c0-40.7,33.1-73.7,73.7-73.7c8.3,0,16.4,1.4,24.2,4.1
			c-0.4,1.7-0.7,3.4-1,5.2c-7.4-2.7-15.2-4-23.2-4C83,65,52.3,95.8,52.3,133.5c0,32.4,23,60.6,54.7,67.1c0.2,0,0.4,0.1,0.7,0.1
			c1.5,0,2.9-1.1,3.2-2.6c0.4-1.8-0.8-3.5-2.5-3.8c-28.7-5.9-49.5-31.4-49.5-60.7c0-34.2,27.8-62,62-62c7.8,0,15.4,1.4,22.6,4.2
			c0,0.8-0.1,1.6-0.1,2.4c0,26.4,16.3,49,39.4,58.3c-1.5,30.9-26.1,56.5-57.2,58.8c-1.8,0.1-3.1,1.7-3,3.5c0.1,1.7,1.6,3,3.2,3
			c0.1,0,0.2,0,0.2,0c33.8-2.5,60.5-29.8,63.1-63.1c1.7,0.5,3.4,0.9,5.2,1.2C191,177.6,159.3,207.3,120.8,207.3z M206.2,134.6
			c-1.8,0-3.5-0.1-5.2-0.3c-2.2-0.2-4.3-0.5-6.5-1c-2-0.4-3.9-0.9-5.8-1.6c-1.3-0.4-2.5-0.9-3.7-1.4c-20.6-8.4-35.2-28.7-35.2-52.3
			c0-30.6,24.5-55.6,55-56.4C188,39.8,182.2,63.1,189.7,84c7.5,21.1,26.4,35.1,51.4,38.5C231.2,130.3,219.1,134.6,206.2,134.6z"/>
	</g>
</g>
<g>
	<g>
		<path class="st2" d="M35.8,304h12.1v16.5c-2,0.6-3.9,1.1-5.7,1.4c-1.8,0.3-3.8,0.4-5.9,0.4c-5,0-8.8-1.5-11.5-4.4
			c-2.7-2.9-4-7.1-4-12.5c0-5.3,1.5-9.4,4.6-12.4c3-3,7.2-4.5,12.6-4.5c3.4,0,6.7,0.7,9.7,2l-1.9,4.5c-2.7-1.2-5.3-1.8-8-1.8
			c-3.5,0-6.3,1.1-8.3,3.3c-2,2.2-3.1,5.2-3.1,9c0,4,0.9,7.1,2.8,9.2c1.8,2.1,4.5,3.1,7.9,3.1c1.7,0,3.6-0.2,5.6-0.7v-8.5h-6.8V304z
			"/>
		<path class="st2" d="M67,322.3c-3.9,0-6.9-1.1-9.1-3.4c-2.2-2.3-3.3-5.4-3.3-9.3c0-4.1,1-7.2,3-9.6c2-2.3,4.8-3.5,8.3-3.5
			c3.3,0,5.9,1,7.8,3c1.9,2,2.9,4.7,2.9,8.2v2.9H60.1c0.1,2.4,0.7,4.3,2,5.6c1.2,1.3,3,1.9,5.2,1.9c1.5,0,2.8-0.1,4.1-0.4
			c1.3-0.3,2.6-0.7,4.1-1.4v4.3c-1.3,0.6-2.6,1-3.9,1.3C70.2,322.1,68.7,322.3,67,322.3z M66.1,300.5c-1.7,0-3,0.5-4,1.6
			c-1,1.1-1.6,2.6-1.8,4.6h11.3c0-2.1-0.5-3.6-1.5-4.7C69,301,67.7,300.5,66.1,300.5z"/>
		<path class="st2" d="M92.8,318c1.3,0,2.6-0.2,3.9-0.6v4c-0.6,0.3-1.3,0.5-2.3,0.6c-0.9,0.2-1.9,0.3-2.9,0.3c-5,0-7.5-2.6-7.5-7.9
			V301h-3.4v-2.3l3.6-1.9l1.8-5.3h3.3v5.5h7.1v4h-7.1v13.3c0,1.3,0.3,2.2,1,2.8C91,317.7,91.8,318,92.8,318z"/>
		<path class="st2" d="M134.6,321.8H116V289h18.6v4.5h-13.2v8.9h12.4v4.5h-12.4v10.3h13.2V321.8z"/>
		<path class="st2" d="M163.9,321.8h-5.3v-15.3c0-1.9-0.4-3.3-1.2-4.3c-0.8-0.9-2-1.4-3.7-1.4c-2.2,0-3.9,0.7-4.9,2
			c-1,1.3-1.5,3.5-1.5,6.6v12.4h-5.3V297h4.1l0.7,3.3h0.3c0.7-1.2,1.8-2.1,3.2-2.7c1.4-0.6,2.9-1,4.6-1c6,0,8.9,3,8.9,9.1V321.8z"/>
		<path class="st2" d="M194.2,309.3c0,4.1-1,7.2-3.1,9.5c-2.1,2.3-5,3.4-8.7,3.4c-2.3,0-4.4-0.5-6.2-1.6c-1.8-1-3.2-2.6-4.1-4.5
			c-1-2-1.4-4.2-1.4-6.8c0-4,1-7.2,3.1-9.4c2.1-2.3,5-3.4,8.7-3.4c3.6,0,6.4,1.2,8.5,3.5C193.2,302.3,194.2,305.4,194.2,309.3z
			 M176.1,309.3c0,5.7,2.1,8.6,6.4,8.6c4.2,0,6.3-2.9,6.3-8.6c0-5.7-2.1-8.5-6.3-8.5c-2.2,0-3.8,0.7-4.8,2.2
			C176.6,304.5,176.1,306.6,176.1,309.3z"/>
		<path class="st2" d="M218.7,321.8l-0.7-3.3h-0.3c-0.7,1.2-1.8,2.1-3.1,2.7c-1.4,0.7-2.9,1-4.6,1c-3,0-5.3-0.7-6.7-2.2
			c-1.5-1.5-2.2-3.8-2.2-6.8V297h5.3v15.3c0,1.9,0.4,3.3,1.2,4.3c0.8,1,2,1.4,3.7,1.4c2.2,0,3.8-0.7,4.9-2c1-1.3,1.6-3.5,1.6-6.7
			V297h5.3v24.8H218.7z"/>
		<path class="st2" d="M252.3,297v2.9l-4.2,0.8c0.4,0.5,0.7,1.2,1,1.9c0.3,0.8,0.4,1.6,0.4,2.4c0,2.6-0.9,4.6-2.7,6
			c-1.8,1.5-4.2,2.2-7.3,2.2c-0.8,0-1.5-0.1-2.2-0.2c-1.1,0.7-1.7,1.5-1.7,2.5c0,0.6,0.3,1,0.8,1.3c0.5,0.3,1.5,0.4,2.9,0.4h4.3
			c2.7,0,4.8,0.6,6.2,1.8c1.4,1.2,2.1,2.9,2.1,5.1c0,2.8-1.2,5-3.5,6.5c-2.3,1.5-5.7,2.3-10.1,2.3c-3.4,0-6-0.6-7.7-1.8
			c-1.8-1.2-2.7-2.9-2.7-5.1c0-1.5,0.5-2.8,1.4-3.9c1-1,2.3-1.8,4.1-2.2c-0.7-0.3-1.3-0.8-1.7-1.4c-0.5-0.7-0.7-1.4-0.7-2.1
			c0-0.9,0.3-1.7,0.8-2.4c0.5-0.6,1.3-1.3,2.3-1.9c-1.3-0.6-2.3-1.5-3.1-2.7c-0.8-1.2-1.2-2.7-1.2-4.4c0-2.7,0.8-4.8,2.5-6.3
			c1.7-1.5,4.1-2.2,7.3-2.2c0.7,0,1.4,0,2.2,0.1c0.8,0.1,1.4,0.2,1.7,0.3H252.3z M232.8,325.7c0,1.1,0.5,2,1.5,2.6
			c1,0.6,2.5,0.9,4.3,0.9c2.9,0,5-0.4,6.4-1.2c1.4-0.8,2.1-1.9,2.1-3.3c0-1.1-0.4-1.8-1.2-2.3c-0.8-0.5-2.2-0.7-4.3-0.7h-4
			c-1.5,0-2.7,0.4-3.6,1.1C233.2,323.5,232.8,324.5,232.8,325.7z M235,305c0,1.6,0.4,2.8,1.2,3.6c0.8,0.8,2,1.3,3.4,1.3
			c3.1,0,4.6-1.6,4.6-4.9c0-1.6-0.4-2.9-1.1-3.7c-0.8-0.9-1.9-1.3-3.4-1.3c-1.5,0-2.7,0.4-3.5,1.3C235.4,302.1,235,303.3,235,305z"
			/>
		<path class="st2" d="M279.7,321.8h-5.3v-15.3c0-1.9-0.4-3.3-1.2-4.3c-0.8-0.9-2-1.4-3.7-1.4c-2.2,0-3.8,0.7-4.9,2
			c-1,1.3-1.6,3.5-1.6,6.7v12.3h-5.3v-34.9h5.3v8.9c0,1.4-0.1,2.9-0.3,4.6h0.3c0.7-1.2,1.7-2.1,3-2.8c1.3-0.7,2.8-1,4.5-1
			c6,0,9,3,9,9.1V321.8z"/>
		<path class="st2" d="M112.2,364.9c0,2.9-1.1,5.2-3.2,6.9c-2.1,1.7-5,2.5-8.7,2.5c-3.7,0-6.8-0.6-9.1-1.7v-5.1
			c1.5,0.7,3.1,1.3,4.8,1.7c1.7,0.4,3.3,0.6,4.7,0.6c2.1,0,3.7-0.4,4.7-1.2c1-0.8,1.5-1.9,1.5-3.3c0-1.2-0.5-2.3-1.4-3.1
			c-0.9-0.9-2.8-1.9-5.8-3c-3-1.2-5.1-2.6-6.3-4.2c-1.2-1.6-1.8-3.4-1.8-5.6c0-2.7,1-4.9,2.9-6.5c1.9-1.6,4.6-2.4,7.8-2.4
			c3.1,0,6.3,0.7,9.4,2.1l-1.7,4.4c-2.9-1.2-5.5-1.8-7.8-1.8c-1.7,0-3.1,0.4-4,1.1c-0.9,0.8-1.3,1.8-1.3,3c0,0.9,0.2,1.6,0.5,2.2
			c0.4,0.6,1,1.2,1.8,1.7c0.8,0.5,2.3,1.3,4.4,2.1c2.4,1,4.2,1.9,5.3,2.8c1.1,0.9,1.9,1.8,2.5,2.9
			C111.9,362.1,112.2,363.4,112.2,364.9z"/>
		<path class="st2" d="M124.2,373.8h-5.3v-34.9h5.3V373.8z"/>
		<path class="st2" d="M143.5,374.3c-3.9,0-6.9-1.1-9.1-3.4c-2.2-2.3-3.3-5.4-3.3-9.3c0-4.1,1-7.2,3-9.6c2-2.3,4.8-3.5,8.3-3.5
			c3.3,0,5.9,1,7.8,3c1.9,2,2.9,4.7,2.9,8.2v2.9h-16.6c0.1,2.4,0.7,4.3,2,5.6c1.2,1.3,3,1.9,5.2,1.9c1.5,0,2.8-0.1,4.1-0.4
			c1.3-0.3,2.6-0.7,4.1-1.4v4.3c-1.3,0.6-2.6,1-3.9,1.3S145.2,374.3,143.5,374.3z M142.5,352.5c-1.7,0-3,0.5-4,1.6
			c-1,1.1-1.6,2.6-1.8,4.6H148c0-2.1-0.5-3.6-1.5-4.7C145.5,353,144.2,352.5,142.5,352.5z"/>
		<path class="st2" d="M170.9,374.3c-3.9,0-6.9-1.1-9.1-3.4c-2.2-2.3-3.3-5.4-3.3-9.3c0-4.1,1-7.2,3-9.6c2-2.3,4.8-3.5,8.3-3.5
			c3.3,0,5.9,1,7.8,3c1.9,2,2.9,4.7,2.9,8.2v2.9H164c0.1,2.4,0.7,4.3,2,5.6c1.2,1.3,3,1.9,5.2,1.9c1.5,0,2.8-0.1,4.1-0.4
			c1.3-0.3,2.6-0.7,4.1-1.4v4.3c-1.3,0.6-2.6,1-3.9,1.3S172.6,374.3,170.9,374.3z M170,352.5c-1.7,0-3,0.5-4,1.6
			c-1,1.1-1.6,2.6-1.8,4.6h11.3c0-2.1-0.5-3.6-1.5-4.7C173,353,171.6,352.5,170,352.5z"/>
		<path class="st2" d="M200.1,374.3c-3.1,0-5.6-1.1-7.3-3.4h-0.3c0.2,2.1,0.3,3.4,0.3,3.8v10.2h-5.3V349h4.3
			c0.1,0.5,0.4,1.6,0.7,3.3h0.3c1.6-2.5,4.1-3.8,7.4-3.8c3.1,0,5.5,1.1,7.2,3.4c1.7,2.2,2.6,5.4,2.6,9.5c0,4.1-0.9,7.2-2.6,9.5
			C205.6,373.1,203.2,374.3,200.1,374.3z M198.8,352.8c-2.1,0-3.6,0.6-4.6,1.8c-1,1.2-1.4,3.2-1.4,5.9v0.8c0,3,0.5,5.2,1.4,6.6
			c1,1.4,2.5,2,4.7,2c1.8,0,3.2-0.7,4.2-2.2c1-1.5,1.5-3.6,1.5-6.4c0-2.8-0.5-4.9-1.5-6.3C202.2,353.5,200.7,352.8,198.8,352.8z"/>
	</g>
</g>
</svg>
