<?xml version="1.0" encoding="utf-8"?>
<!-- Generator: Adobe Illustrator 24.1.0, SVG Export Plug-In . SVG Version: 6.00 Build 0)  -->
<svg version="1.1" id="Layer_1" xmlns="http://www.w3.org/2000/svg" xmlns:xlink="http://www.w3.org/1999/xlink" x="0px" y="0px"
	 viewBox="0 0 300 400" style="enable-background:new 0 0 300 400;" xml:space="preserve">
<style type="text/css">
	.st0{fill:#45505E;}
	.st1{fill:#283182;}
	.st2{fill:#C9E084;}
</style>
<g>
	<path class="st0" d="M78.5,312.1H60v-32.8h18.6v4.5H65.3v8.9h12.4v4.5H65.3v10.3h13.2V312.1z"/>
	<path class="st0" d="M91.5,299.4l-8.3-12.2h6l5.7,8.7l5.7-8.7h6l-8.4,12.2l8.8,12.7h-6l-6.1-9.3l-6.1,9.3h-6L91.5,299.4z"/>
	<path class="st0" d="M123.1,312.6c-3.9,0-6.9-1.1-9.1-3.4c-2.2-2.3-3.3-5.4-3.3-9.3c0-4.1,1-7.2,3-9.6c2-2.3,4.8-3.5,8.3-3.5
		c3.3,0,5.9,1,7.8,3c1.9,2,2.9,4.7,2.9,8.2v2.9h-16.6c0.1,2.4,0.7,4.3,2,5.6c1.2,1.3,3,1.9,5.2,1.9c1.5,0,2.8-0.1,4.1-0.4
		c1.3-0.3,2.6-0.7,4.1-1.4v4.3c-1.3,0.6-2.6,1-3.9,1.3C126.3,312.4,124.8,312.6,123.1,312.6z M122.1,290.8c-1.7,0-3,0.5-4,1.6
		c-1,1.1-1.6,2.6-1.8,4.6h11.3c0-2.1-0.5-3.6-1.5-4.7C125.1,291.3,123.8,290.8,122.1,290.8z"/>
	<path class="st0" d="M152.3,286.8c1.1,0,1.9,0.1,2.6,0.2l-0.5,4.9c-0.7-0.2-1.5-0.3-2.3-0.3c-2.1,0-3.8,0.7-5.1,2.1
		c-1.3,1.4-2,3.2-2,5.4v13h-5.3v-24.8h4.1l0.7,4.4h0.3c0.8-1.5,1.9-2.7,3.2-3.5C149.3,287.3,150.8,286.8,152.3,286.8z"/>
	<path class="st0" d="M170.4,312.6c-3.8,0-6.6-1.1-8.6-3.3c-2-2.2-2.9-5.3-2.9-9.4c0-4.2,1-7.4,3.1-9.6c2-2.2,5-3.4,8.9-3.4
		c2.6,0,5,0.5,7.1,1.5l-1.6,4.2c-2.2-0.9-4.1-1.3-5.5-1.3c-4.3,0-6.4,2.9-6.4,8.6c0,2.8,0.5,4.9,1.6,6.3c1.1,1.4,2.6,2.1,4.7,2.1
		c2.4,0,4.6-0.6,6.7-1.8v4.6c-0.9,0.6-2,1-3,1.2C173.3,312.4,172,312.6,170.4,312.6z"/>
	<path class="st0" d="M183.8,280.7c0-0.9,0.3-1.7,0.8-2.2c0.5-0.5,1.3-0.8,2.2-0.8c0.9,0,1.7,0.3,2.2,0.8c0.5,0.5,0.8,1.2,0.8,2.2
		c0,0.9-0.3,1.6-0.8,2.1c-0.5,0.5-1.2,0.8-2.2,0.8c-1,0-1.7-0.3-2.2-0.8C184.1,282.3,183.8,281.6,183.8,280.7z M189.4,312.1h-5.3
		v-24.8h5.3V312.1z"/>
	<path class="st0" d="M214.6,305c0,2.4-0.9,4.3-2.7,5.6c-1.8,1.3-4.3,1.9-7.6,1.9c-3.3,0-6-0.5-8-1.5v-4.6c2.9,1.3,5.6,2,8.2,2
		c3.2,0,4.9-1,4.9-2.9c0-0.6-0.2-1.2-0.5-1.6c-0.4-0.4-1-0.9-1.8-1.3c-0.8-0.4-2-1-3.4-1.5c-2.9-1.1-4.8-2.2-5.8-3.3
		c-1-1.1-1.5-2.5-1.5-4.3c0-2.1,0.9-3.8,2.6-5c1.7-1.2,4-1.8,7-1.8c2.9,0,5.7,0.6,8.3,1.8l-1.7,4c-2.7-1.1-4.9-1.7-6.8-1.7
		c-2.8,0-4.2,0.8-4.2,2.4c0,0.8,0.4,1.4,1.1,2c0.7,0.5,2.3,1.3,4.8,2.2c2.1,0.8,3.5,1.5,4.5,2.2c0.9,0.7,1.6,1.4,2.1,2.3
		C214.3,302.8,214.6,303.8,214.6,305z"/>
	<path class="st0" d="M232,312.6c-3.9,0-6.9-1.1-9.1-3.4c-2.2-2.3-3.3-5.4-3.3-9.3c0-4.1,1-7.2,3-9.6c2-2.3,4.8-3.5,8.3-3.5
		c3.3,0,5.9,1,7.8,3c1.9,2,2.9,4.7,2.9,8.2v2.9h-16.6c0.1,2.4,0.7,4.3,2,5.6c1.2,1.3,3,1.9,5.2,1.9c1.5,0,2.8-0.1,4.1-0.4
		c1.3-0.3,2.6-0.7,4.1-1.4v4.3c-1.3,0.6-2.6,1-3.9,1.3C235.2,312.4,233.7,312.6,232,312.6z M231.1,290.8c-1.7,0-3,0.5-4,1.6
		c-1,1.1-1.6,2.6-1.8,4.6h11.3c0-2.1-0.5-3.6-1.5-4.7C234.1,291.3,232.7,290.8,231.1,290.8z"/>
	<path class="st0" d="M52.6,351v13.1h-5.4v-32.8h9.3c4.2,0,7.4,0.8,9.4,2.4c2,1.6,3.1,4,3.1,7.2c0,4.1-2.1,7-6.4,8.7l9.3,14.5h-6.1
		L57.9,351H52.6z M52.6,346.5h3.7c2.5,0,4.3-0.5,5.4-1.4c1.1-0.9,1.7-2.3,1.7-4.1c0-1.9-0.6-3.2-1.8-4c-1.2-0.8-3-1.2-5.5-1.2h-3.5
		V346.5z"/>
	<path class="st0" d="M87.8,364.6c-3.9,0-6.9-1.1-9.1-3.4c-2.2-2.3-3.3-5.4-3.3-9.3c0-4.1,1-7.2,3-9.6c2-2.3,4.8-3.5,8.3-3.5
		c3.3,0,5.9,1,7.8,3c1.9,2,2.9,4.7,2.9,8.2v2.9H80.9c0.1,2.4,0.7,4.3,2,5.6c1.2,1.3,3,1.9,5.2,1.9c1.5,0,2.8-0.1,4.1-0.4
		c1.3-0.3,2.6-0.7,4.1-1.4v4.3c-1.3,0.6-2.6,1-3.9,1.3C91,364.4,89.5,364.6,87.8,364.6z M86.8,342.8c-1.7,0-3,0.5-4,1.6
		c-1,1.1-1.6,2.6-1.8,4.6h11.3c0-2.1-0.5-3.6-1.5-4.7C89.8,343.3,88.5,342.8,86.8,342.8z"/>
	<path class="st0" d="M125.3,339.3v2.9l-4.2,0.8c0.4,0.5,0.7,1.2,1,1.9c0.3,0.8,0.4,1.6,0.4,2.4c0,2.6-0.9,4.6-2.7,6
		c-1.8,1.5-4.2,2.2-7.3,2.2c-0.8,0-1.5-0.1-2.2-0.2c-1.1,0.7-1.7,1.5-1.7,2.5c0,0.6,0.3,1,0.8,1.3c0.5,0.3,1.5,0.4,2.9,0.4h4.3
		c2.7,0,4.8,0.6,6.2,1.8c1.4,1.2,2.1,2.9,2.1,5.1c0,2.8-1.2,5-3.5,6.5c-2.3,1.5-5.7,2.3-10.1,2.3c-3.4,0-6-0.6-7.7-1.8
		c-1.8-1.2-2.7-2.9-2.7-5.1c0-1.5,0.5-2.8,1.4-3.9c1-1,2.3-1.8,4.1-2.2c-0.7-0.3-1.3-0.8-1.7-1.4c-0.5-0.7-0.7-1.4-0.7-2.1
		c0-0.9,0.3-1.7,0.8-2.4c0.5-0.6,1.3-1.3,2.3-1.9c-1.3-0.6-2.3-1.5-3.1-2.7c-0.8-1.2-1.2-2.7-1.2-4.4c0-2.7,0.8-4.8,2.5-6.3
		c1.7-1.5,4.1-2.2,7.3-2.2c0.7,0,1.4,0,2.2,0.1c0.8,0.1,1.4,0.2,1.7,0.3H125.3z M105.8,368c0,1.1,0.5,2,1.5,2.6
		c1,0.6,2.5,0.9,4.3,0.9c2.9,0,5-0.4,6.4-1.2c1.4-0.8,2.1-1.9,2.1-3.3c0-1.1-0.4-1.8-1.2-2.3c-0.8-0.5-2.2-0.7-4.3-0.7h-4
		c-1.5,0-2.7,0.4-3.6,1.1C106.3,365.8,105.8,366.8,105.8,368z M108.1,347.3c0,1.6,0.4,2.8,1.2,3.6c0.8,0.8,2,1.3,3.4,1.3
		c3.1,0,4.6-1.6,4.6-4.9c0-1.6-0.4-2.9-1.1-3.7c-0.8-0.9-1.9-1.3-3.4-1.3c-1.5,0-2.7,0.4-3.5,1.3
		C108.5,344.4,108.1,345.6,108.1,347.3z"/>
	<path class="st0" d="M148.4,364.1l-0.7-3.3h-0.3c-0.7,1.2-1.8,2.1-3.1,2.7c-1.4,0.7-2.9,1-4.6,1c-3,0-5.3-0.7-6.7-2.2
		c-1.5-1.5-2.2-3.8-2.2-6.8v-16.2h5.3v15.3c0,1.9,0.4,3.3,1.2,4.3c0.8,1,2,1.4,3.7,1.4c2.2,0,3.8-0.7,4.9-2c1-1.3,1.6-3.5,1.6-6.7
		v-12.4h5.3v24.8H148.4z"/>
	<path class="st0" d="M163,364.1h-5.3v-34.9h5.3V364.1z"/>
	<path class="st0" d="M187,364.1l-1.1-3.5h-0.2c-1.2,1.5-2.4,2.5-3.6,3.1c-1.2,0.5-2.8,0.8-4.7,0.8c-2.4,0-4.3-0.7-5.7-2
		c-1.4-1.3-2.1-3.2-2.1-5.6c0-2.6,1-4.5,2.9-5.8c1.9-1.3,4.8-2,8.7-2.1l4.3-0.1v-1.3c0-1.6-0.4-2.8-1.1-3.6
		c-0.7-0.8-1.9-1.2-3.4-1.2c-1.3,0-2.5,0.2-3.7,0.6c-1.2,0.4-2.3,0.8-3.4,1.3l-1.7-3.8c1.3-0.7,2.8-1.2,4.4-1.6
		c1.6-0.4,3.1-0.5,4.5-0.5c3.2,0,5.5,0.7,7.2,2.1c1.6,1.4,2.4,3.5,2.4,6.5v16.7H187z M179.2,360.5c1.9,0,3.5-0.5,4.6-1.6
		c1.2-1.1,1.7-2.6,1.7-4.5v-2.2l-3.2,0.1c-2.5,0.1-4.3,0.5-5.4,1.2c-1.1,0.7-1.7,1.9-1.7,3.4c0,1.1,0.3,2,1,2.6
		C176.9,360.2,177.9,360.5,179.2,360.5z"/>
	<path class="st0" d="M211.7,338.8c1.1,0,1.9,0.1,2.6,0.2l-0.5,4.9c-0.7-0.2-1.5-0.3-2.3-0.3c-2.1,0-3.8,0.7-5.1,2.1
		c-1.3,1.4-2,3.2-2,5.4v13h-5.3v-24.8h4.1l0.7,4.4h0.3c0.8-1.5,1.9-2.7,3.2-3.5C208.7,339.3,210.2,338.8,211.7,338.8z"/>
	<path class="st0" d="M225.1,364.1h-5.3v-34.9h5.3V364.1z"/>
	<path class="st0" d="M229.8,339.3h5.8l5.1,14.1c0.8,2,1.3,3.9,1.5,5.7h0.2c0.1-0.8,0.4-1.8,0.7-3c0.4-1.2,2.3-6.8,5.7-16.7h5.7
		l-10.6,28.1c-1.9,5.2-5.2,7.7-9.7,7.7c-1.2,0-2.3-0.1-3.4-0.4v-4.2c0.8,0.2,1.7,0.3,2.7,0.3c2.5,0,4.3-1.5,5.4-4.4l0.9-2.3
		L229.8,339.3z"/>
</g>
<g>
	<path class="st1" d="M263.3,142.8H254v-21.1c0-5.2-4.2-9.4-9.4-9.4c-5.4,0-8.2,0-9.5,0V108c0-5.9-5.2-10.7-11.6-10.7
		c-6.4,0-11.6,4.8-11.6,10.7v11.5c0,1.6,1.3,2.8,2.8,2.8c1.6,0,2.8-1.3,2.8-2.8V108c0-2.8,2.6-5,5.9-5c3.3,0,5.9,2.3,5.9,5v40.4
		c0,1.6,1.3,2.8,2.8,2.8c1.6,0,2.8-1.3,2.8-2.8V118c2.8,0,9.5,0,9.5,0c2.1,0,3.8,1.7,3.8,3.8v59.1c0,2.1-1.7,3.8-3.8,3.8l-9.5,0
		v-22.7c0-1.6-1.3-2.8-2.8-2.8c-1.6,0-2.8,1.3-2.8,2.8v32.7c0,2.8-2.6,5-5.9,5c-3.3,0-5.9-2.3-5.9-5V133c0-1.6-1.3-2.8-2.8-2.8
		c-1.6,0-2.8,1.3-2.8,2.8v9.8H195c-1.5-5.6-6.5-9.7-12.5-9.7H117c-6,0-11.1,4.1-12.5,9.7H87.8V108c0-5.9-5.2-10.7-11.6-10.7
		c-2.7,0-5.3,0.9-7.3,2.4c0,0,0,0,0,0c-2.7,2-4.2,5.1-4.2,8.3v4.4c-1.4,0-4.1,0-9.5,0c-5.2,0-9.4,4.2-9.4,9.4v21.1h-8.6
		c-1.6,0-2.8,1.3-2.8,2.8v11.3c0,1.6,1.3,2.8,2.8,2.8h8.6v21.1c0,5.2,4.2,9.4,9.4,9.4h9.5v4.3c0,5.9,5.2,10.7,11.6,10.7
		c6.4,0,11.6-4.8,11.6-10.7v-5.1c0-1.6-1.3-2.8-2.8-2.8s-2.8,1.3-2.8,2.8v5.1c0,2.8-2.6,5-5.9,5c-3.3,0-5.9-2.3-5.9-5v-60.9
		c0-1.6-1.3-2.8-2.8-2.8c-1.6,0-2.8,1.3-2.8,2.8v50.9h-9.5c-2.1,0-3.8-1.7-3.8-3.8v-59.1c0-2.1,1.7-3.8,3.8-3.8c0,0,6.7,0,9.5,0v2.2
		c0,1.6,1.3,2.8,2.8,2.8c1.6,0,2.8-1.3,2.8-2.8V108c0-1.4,0.7-2.8,2-3.8c0,0,0,0,0,0c1.1-0.8,2.5-1.3,3.9-1.3c3.3,0,5.9,2.3,5.9,5
		v68c0,1.6,1.3,2.8,2.8,2.8s2.8-1.3,2.8-2.8v-16.1h16.6c1.5,5.6,6.5,9.7,12.5,9.7h65.5c6,0,11.1-4.1,12.5-9.7h16.9v34.8
		c0,5.9,5.2,10.7,11.6,10.7c6.4,0,11.6-4.8,11.6-10.7v-4.3h9.5c5.2,0,9.4-4.2,9.4-9.4v-21.1h9.3c1.6,0,2.8-1.3,2.8-2.8v-11.3
		C266.1,144.1,264.8,142.8,263.3,142.8z M40,154.1v-5.7h5.7v5.7H40z M88.1,148.5H104v5.7H88.1V148.5z M182.5,163.8H117
		c-4,0-7.3-3.3-7.3-7.3v-10.4c0-4,3.3-7.3,7.3-7.3h65.5c4,0,7.3,3.3,7.3,7.3v10.3C189.8,160.5,186.5,163.8,182.5,163.8z
		 M211.6,154.1h-16.1v-5.7h16.1V154.1z M260.4,154.1H254v-5.7h6.4V154.1z"/>
	<g>
		<g>
			<path class="st2" d="M155,122.3L155,122.3c1.7-1,53.8-40.7,54-67.8c0.1-18.5-10.8-27.3-23.7-27.3c-21.5,0-30,20.4-30.3,21.3
				c-0.4-0.9-8.9-21.3-30.3-21.3c-12.9,0-23.8,8.8-23.7,27.3C101.2,81.7,153.4,121.3,155,122.3L155,122.3z"/>
		</g>
	</g>
	<g>
		<path class="st1" d="M105.6,52.8c0-0.3,0-0.5,0-0.8c0.1-1.6-1.2-2.9-2.7-2.9c-1.5,0-2.9,1.2-2.9,2.7c0,0.3,0,0.6,0,1
			c0,3.5,0.7,6.9,2.2,10.2c0.5,1.1,1.5,1.7,2.6,1.7c0.4,0,0.8-0.1,1.2-0.2c1.4-0.6,2.1-2.3,1.4-3.7
			C106.1,58.2,105.6,55.5,105.6,52.8z"/>
		<path class="st1" d="M108.8,37c-1.2-0.9-3-0.7-4,0.5c-0.1,0.1-1,1.3-2,3.4c-0.7,1.4-0.1,3.1,1.3,3.8c0.4,0.2,0.8,0.3,1.3,0.3
			c1,0,2-0.6,2.5-1.6c0.8-1.5,1.4-2.4,1.5-2.5C110.2,39.8,110,38,108.8,37z"/>
		<path class="st1" d="M210.6,78.9h-15.1c5.4-8.1,9-16.3,9.1-23.8c0.1-9.6-2.7-17.5-8-22.9c-4.7-4.7-11.2-7.3-18.5-7.3
			c-16.6,0-26.1,11.3-30.3,18.1c-4.2-6.8-13.6-18.1-30.4-18.1c-7.3,0-13.8,2.6-18.5,7.3c-5.3,5.4-8.1,13.3-8,22.9
			c0.1,6.9,3.2,14.5,7.9,22h-8.9c-1.6,0-2.8,1.3-2.8,2.8c0,1.6,1.3,2.8,2.8,2.8h12.7c16.1,22.1,43.2,42.3,43.6,42.5c0,0,0.1,0,0.1,0
			c0,0,0,0,0.1,0c0.4,0.2,0.9,0.4,1.4,0.4c0.5,0,1-0.1,1.5-0.4c0.2-0.1,0.5-0.3,0.6-0.5c4-3,26.8-20.7,41.6-40.3h19.1
			c1.6,0,2.8-1.3,2.8-2.8C213.4,80.2,212.1,78.9,210.6,78.9z M96.5,55c-0.1-8.1,2.1-14.6,6.4-18.9c3.6-3.7,8.6-5.6,14.5-5.6
			c19.6,0,27.4,18.7,27.7,19.5c0.4,1.1,1.5,1.8,2.6,1.8c0,0,0,0,0,0c1.1,0,2.2-0.7,2.6-1.8c0.3-0.8,8.2-19.5,27.7-19.5
			c5.8,0,10.8,1.9,14.5,5.6c4.2,4.3,6.4,10.8,6.4,18.9c-0.1,7.2-4.2,15.6-10.2,23.9h-24.1l-3.9-6.2c-0.6-0.9-1.6-1.4-2.7-1.3
			c-1.1,0.1-2,0.8-2.4,1.8L149.6,89l-10.9-26.1c-0.4-0.9-1.3-1.6-2.3-1.7c-1-0.1-2,0.3-2.6,1.2l-10.6,14.8h-17.8
			C100.1,69.4,96.6,61.7,96.5,55z M147.7,119.4c-6-4.5-25-20.1-38.1-36.7h15.1c0.9,0,1.8-0.4,2.3-1.2l8.5-11.8l11.6,28
			c0.4,1.1,1.5,1.7,2.6,1.7c0,0,0,0,0,0c1.2,0,2.2-0.7,2.6-1.8l6.6-17.2l1.7,2.7c0.5,0.8,1.4,1.3,2.4,1.3h21.3
			C171.3,100.5,153.4,115.2,147.7,119.4z"/>
	</g>
</g>
</svg>
