<?xml version="1.0" encoding="utf-8"?>
<!-- Generator: Adobe Illustrator 24.1.0, SVG Export Plug-In . SVG Version: 6.00 Build 0)  -->
<svg version="1.1" id="Layer_1" xmlns="http://www.w3.org/2000/svg" xmlns:xlink="http://www.w3.org/1999/xlink" x="0px" y="0px"
	 viewBox="0 0 300 400" style="enable-background:new 0 0 300 400;" xml:space="preserve">
<style type="text/css">
	.st0{fill:#C9E084;}
	.st1{fill:#283182;}
	.st2{fill:#45505E;}
</style>
<g>
	<g>
		<path class="st0" d="M204.8,136l-26.2-5.6c1-11.3,1.2-23.4-0.2-30.6c-1.6-8.3-2.8-22.2-0.7-34.7c2.5-14.7,9.7-27.3,26.4-26.4
			c18.2,1,31.8,19.7,32.3,40.9c0.6,22-6.2,43.5-11.5,60.7l-9.2-2L204.8,136z"/>
	</g>
	<g>
		<path class="st0" d="M176.6,145.7c0.1-0.5,0.2-1,0.3-1.5l44.4,9.5c-0.1,0.5-0.3,1-0.4,1.5c-0.7,2.7-3.3,16-4,18.6
			c-3.9,13-15.1,19.2-28,16.4c-12.9-2.8-20-13.9-17.3-26.8C172,160.8,176,148.5,176.6,145.7z"/>
	</g>
	<g>
		<path class="st0" d="M108.9,181l29.7-6.3c-1-11.3-1.2-23.4,0.2-30.6C142.2,126,144,81.4,113,83c-18.2,1-31.8,19.7-32.3,40.9
			c-0.6,22,6.2,43.5,11.5,60.7l6.2-1.3L108.9,181z"/>
	</g>
	<g>
		<path class="st0" d="M140.7,190c-0.1-0.5-0.2-1-0.3-1.5L96,198c0.1,0.5,0.3,1,0.4,1.5c0.7,2.7,3.3,16,4,18.6
			c3.9,13,15.1,19.2,28,16.4c12.9-2.8,20-13.9,17.3-26.8C145.2,205.1,141.2,192.8,140.7,190z"/>
	</g>
	<g>
		<path class="st1" d="M79.4,188.8c-1.4,0-2.7-0.9-3.2-2.3l-0.4-1.3C70.5,168,64,146.7,64.6,124.7C65.2,101,80.8,81.6,100,80.6
			c8.7-0.5,15.8,2.4,21.1,8.4c12.2,13.9,10.8,42.2,8.1,56.7c-1.2,6.2-1.2,17.6-0.1,29.7c0.2,1.7-1,3.2-2.6,3.5l-29.7,6.3
			c-1.8,0.4-3.5-0.8-3.9-2.5c-0.4-1.8,0.8-3.5,2.5-3.9l26.8-5.7c-0.9-11.7-0.8-22.2,0.4-28.6c2.3-12.4,4-39-6.5-51.1
			c-3.9-4.5-9-6.5-15.8-6.1c-15.8,0.8-28.7,17.4-29.2,37.7c-0.5,20.3,5.4,40.4,10.4,56.8l3.2-0.7c1.8-0.4,3.5,0.8,3.9,2.5
			c0.4,1.8-0.8,3.5-2.5,3.9l-6.2,1.3C79.8,188.8,79.6,188.8,79.4,188.8z"/>
	</g>
	<g>
		<path class="st1" d="M109.7,239.4C109.7,239.4,109.7,239.4,109.7,239.4c-12,0-21.7-7.5-25.3-19.5c-0.5-1.6-1.4-5.9-2.6-11.9
			c-0.6-3-1.2-5.8-1.5-6.9c-0.1-0.3-0.1-0.6-0.2-0.9l-0.2-0.6c-0.2-0.9-0.1-1.8,0.4-2.6c0.5-0.8,1.2-1.3,2.1-1.5l44.4-9.5
			c0.9-0.2,1.8,0,2.5,0.5c0.7,0.5,1.3,1.3,1.4,2.2l0.1,0.5c0.1,0.4,0.1,0.7,0.2,1.1c0.2,1.3,1.6,5.7,2.7,9.3c1.1,3.7,2.1,7,2.4,8.3
			c3.1,14.7-5.2,27.6-19.8,30.7C114.1,239.1,111.9,239.4,109.7,239.4z M87.2,201.4c0.3,1.4,0.7,3.2,1.1,5.3
			c0.9,4.2,2.1,9.9,2.5,11.3c2.7,9.2,9.8,14.7,18.9,14.7c0,0,0,0,0,0c1.7,0,3.5-0.2,5.2-0.6c11-2.4,17.1-11.8,14.7-22.9
			c-0.2-1.1-1.3-4.6-2.3-7.8c-1.1-3.6-1.9-6.4-2.4-8.2L87.2,201.4z"/>
	</g>
	<g>
		<path class="st1" d="M214.5,141c-0.2,0-0.5,0-0.7-0.1l-9.2-2c-1.8-0.4-2.9-2.1-2.5-3.9c0.4-1.8,2.2-2.9,3.9-2.5l6.2,1.3
			c5-16.4,11-36.5,10.4-56.8c-0.5-20.3-13.4-36.9-29.2-37.7c-12.5-0.7-20.2,7.3-23,23.7c-2,11.6-0.9,24.9,0.7,33.5
			c1.2,6.4,1.4,16.9,0.4,28.6l23.3,5c1.8,0.4,2.9,2.1,2.5,3.9c-0.4,1.8-2.2,2.9-3.9,2.5l-26.2-5.6c-1.6-0.4-2.8-1.9-2.6-3.5
			c1.1-12.2,1.1-23.3-0.1-29.7c-1.7-9.2-2.8-23.4-0.7-35.9c3.3-19.7,13.9-30,29.9-29.2c19.3,1,34.9,20.4,35.5,44.1
			c0.6,22-6,43.3-11.2,60.4l-0.4,1.3C217.2,140,215.9,141,214.5,141z"/>
	</g>
	<g>
		<path class="st1" d="M184.1,191.5c-2.2,0-4.4-0.2-6.6-0.7c-14.6-3.1-22.9-16-19.8-30.7c0.3-1.4,1.3-4.6,2.4-8.3
			c1.1-3.6,2.4-8.1,2.7-9.3c0.1-0.4,0.1-0.7,0.2-1.1l0.1-0.4c0.2-0.9,0.7-1.7,1.4-2.2c0.7-0.5,1.7-0.7,2.5-0.5l44.4,9.5
			c0.9,0.2,1.7,0.7,2.1,1.5c0.5,0.8,0.6,1.7,0.4,2.6l-0.1,0.5c-0.1,0.3-0.2,0.6-0.2,1c-0.2,1-0.8,3.8-1.5,6.8
			c-1.2,6-2.1,10.3-2.6,11.9C205.8,184.1,196.1,191.5,184.1,191.5z M168.8,145.5c-0.5,1.8-1.3,4.6-2.4,8.3c-0.9,3.1-2,6.7-2.2,7.7
			c-2.4,11.1,3.7,20.5,14.7,22.9c1.8,0.4,3.5,0.6,5.2,0.6c9.1,0,16.2-5.5,18.9-14.7c0.4-1.4,1.6-7.2,2.5-11.4c0.4-2,0.8-3.9,1.1-5.3
			L168.8,145.5z"/>
	</g>
</g>
<g>
	<g>
		<path class="st2" d="M64.6,357.1h-5.8l-5.6-19.6c-0.2-0.9-0.5-2.1-0.9-3.7c-0.4-1.6-0.6-2.7-0.7-3.4c-0.2,1-0.4,2.2-0.7,3.7
			c-0.3,1.5-0.6,2.7-0.8,3.4l-5.4,19.5h-5.8l-4.2-16.4l-4.3-16.4h5.5l4.7,19.1c0.7,3.1,1.3,5.8,1.6,8.1c0.2-1.3,0.4-2.7,0.7-4.3
			c0.3-1.6,0.6-2.8,0.9-3.8l5.3-19.2h5.3l5.5,19.3c0.5,1.8,1.1,4.4,1.7,8c0.2-2.1,0.8-4.9,1.6-8.2l4.7-19.1h5.4L64.6,357.1z"/>
		<path class="st2" d="M93.7,357.1l-1.1-3.5h-0.2c-1.2,1.5-2.4,2.5-3.6,3.1c-1.2,0.5-2.8,0.8-4.7,0.8c-2.4,0-4.3-0.7-5.7-2
			c-1.4-1.3-2.1-3.2-2.1-5.6c0-2.6,1-4.5,2.9-5.8c1.9-1.3,4.8-2,8.7-2.1l4.3-0.1v-1.3c0-1.6-0.4-2.8-1.1-3.6
			c-0.7-0.8-1.9-1.2-3.4-1.2c-1.3,0-2.5,0.2-3.7,0.6c-1.2,0.4-2.3,0.8-3.4,1.3l-1.7-3.8c1.3-0.7,2.8-1.2,4.4-1.6
			c1.6-0.4,3.1-0.5,4.5-0.5c3.2,0,5.5,0.7,7.2,2.1c1.6,1.4,2.4,3.5,2.4,6.5v16.7H93.7z M85.8,353.5c1.9,0,3.5-0.5,4.6-1.6
			c1.2-1.1,1.7-2.6,1.7-4.5v-2.2l-3.2,0.1c-2.5,0.1-4.3,0.5-5.4,1.2c-1.1,0.7-1.7,1.9-1.7,3.4c0,1.1,0.3,2,1,2.6
			C83.5,353.2,84.5,353.5,85.8,353.5z"/>
		<path class="st2" d="M111,357.1h-5.3v-34.9h5.3V357.1z"/>
		<path class="st2" d="M124.6,344l3-3.7l7.5-8h6.1l-10,10.7l10.6,14.2h-6.2l-8-10.9l-2.9,2.4v8.5h-5.2v-34.9h5.2v17l-0.3,4.8H124.6z
			"/>
		<path class="st2" d="M186.9,340.4c0,5.4-1.5,9.6-4.5,12.4c-3,2.9-7.3,4.3-13,4.3h-9.2v-32.8h10.2c5.2,0,9.3,1.4,12.2,4.2
			C185.4,331.3,186.9,335.3,186.9,340.4z M181.2,340.6c0-7.9-3.7-11.8-11-11.8h-4.6v23.8h3.8C177.2,352.6,181.2,348.6,181.2,340.6z"
			/>
		<path class="st2" d="M209.8,357.1l-1.1-3.5h-0.2c-1.2,1.5-2.4,2.5-3.6,3.1c-1.2,0.5-2.8,0.8-4.7,0.8c-2.4,0-4.3-0.7-5.7-2
			c-1.4-1.3-2.1-3.2-2.1-5.6c0-2.6,1-4.5,2.9-5.8c1.9-1.3,4.8-2,8.7-2.1l4.3-0.1v-1.3c0-1.6-0.4-2.8-1.1-3.6
			c-0.7-0.8-1.9-1.2-3.4-1.2c-1.3,0-2.5,0.2-3.7,0.6c-1.2,0.4-2.3,0.8-3.4,1.3l-1.7-3.8c1.3-0.7,2.8-1.2,4.4-1.6
			c1.6-0.4,3.1-0.5,4.5-0.5c3.2,0,5.5,0.7,7.2,2.1c1.6,1.4,2.4,3.5,2.4,6.5v16.7H209.8z M201.9,353.5c1.9,0,3.5-0.5,4.6-1.6
			c1.2-1.1,1.7-2.6,1.7-4.5v-2.2l-3.2,0.1c-2.5,0.1-4.3,0.5-5.4,1.2c-1.1,0.7-1.7,1.9-1.7,3.4c0,1.1,0.3,2,1,2.6
			C199.6,353.2,200.6,353.5,201.9,353.5z"/>
		<path class="st2" d="M221.6,325.7c0-0.9,0.3-1.7,0.8-2.2c0.5-0.5,1.3-0.8,2.2-0.8c0.9,0,1.7,0.3,2.2,0.8s0.8,1.2,0.8,2.2
			c0,0.9-0.3,1.6-0.8,2.1c-0.5,0.5-1.2,0.8-2.2,0.8c-1,0-1.7-0.3-2.2-0.8C221.8,327.3,221.6,326.6,221.6,325.7z M227.1,357.1h-5.3
			v-24.8h5.3V357.1z"/>
		<path class="st2" d="M240.9,357.1h-5.3v-34.9h5.3V357.1z"/>
		<path class="st2" d="M245.6,332.3h5.8l5.1,14.1c0.8,2,1.3,3.9,1.5,5.7h0.2c0.1-0.8,0.4-1.8,0.7-3c0.4-1.2,2.3-6.8,5.7-16.7h5.7
			l-10.6,28.1c-1.9,5.2-5.2,7.7-9.7,7.7c-1.2,0-2.3-0.1-3.4-0.4v-4.2c0.8,0.2,1.7,0.3,2.7,0.3c2.5,0,4.3-1.5,5.4-4.4l0.9-2.3
			L245.6,332.3z"/>
	</g>
</g>
</svg>
