<?xml version="1.0" encoding="utf-8"?>
<!-- Generator: Adobe Illustrator 24.1.0, SVG Export Plug-In . SVG Version: 6.00 Build 0)  -->
<svg version="1.1" id="Layer_1" xmlns="http://www.w3.org/2000/svg" xmlns:xlink="http://www.w3.org/1999/xlink" x="0px" y="0px"
	 viewBox="0 0 300 400" style="enable-background:new 0 0 300 400;" xml:space="preserve">
<style type="text/css">
	.st0{fill:#FFD561;}
	.st1{fill:#283182;}
	.st2{fill:#45505E;}
</style>
<g>
	<g>
		<path class="st0" d="M227.2,176.4c-18.1,0-18.1-14.9-36.3-14.9c-18.1,0-18.1,14.9-36.3,14.9s-18.1-14.9-36.2-14.9
			s-18.1,14.9-36.2,14.9c-18.1,0-18.1-14.9-36.2-14.9v46.6c18.1,0,18.1,14.9,36.2,14.9c18.1,0,18.1-14.9,36.2-14.9
			s18.1,14.9,36.2,14.9s18.1-14.9,36.3-14.9c18.1,0,18.1,14.9,36.3,14.9c18.1,0,18.1-14.9,36.3-14.9v-46.6
			C245.3,161.6,245.3,176.4,227.2,176.4z"/>
	</g>
	<g>
		<path class="st1" d="M257,176.9c-10,0-15.2,3.5-19.8,6.5c-4.5,3-8.3,5.5-16.5,5.5c-8.2,0-12-2.6-16.5-5.5
			c-4.6-3.1-9.8-6.5-19.8-6.5c-10,0-15.2,3.5-19.8,6.5c-4.5,3-8.3,5.5-16.5,5.5c-8.1,0-12-2.6-16.5-5.5c-4.1-2.7-8.7-5.8-16.7-6.4
			c-1.6-0.1-3.1,1.1-3.2,2.8c-0.1,1.7,1.1,3.1,2.8,3.2c6.4,0.5,9.8,2.8,13.8,5.4c4.6,3.1,9.8,6.5,19.8,6.5c10,0,15.2-3.5,19.8-6.5
			c4.5-3,8.3-5.5,16.5-5.5c8.2,0,12,2.6,16.5,5.5c4.6,3.1,9.8,6.5,19.8,6.5c10,0,15.2-3.5,19.8-6.5c4.5-3,8.3-5.5,16.5-5.5
			c1.7,0,3-1.4,3-3C260,178.3,258.7,176.9,257,176.9z"/>
		<path class="st1" d="M39.5,182.9c8.1,0,12,2.6,16.5,5.5c4.6,3.1,9.8,6.5,19.8,6.5c10,0,15.2-3.5,19.8-6.5c1.5-1,2.9-1.9,4.4-2.7
			c1.5-0.8,2-2.6,1.2-4.1c-0.8-1.5-2.6-2-4.1-1.2c-1.8,1-3.4,2-4.9,3c-4.5,3-8.3,5.5-16.5,5.5c-8.1,0-12-2.6-16.5-5.5
			c-4.6-3.1-9.8-6.5-19.8-6.5c-1.7,0-3,1.4-3,3C36.5,181.6,37.9,182.9,39.5,182.9z"/>
		<path class="st1" d="M257,200.3c-10,0-15.2,3.5-19.8,6.5c-4.5,3-8.3,5.5-16.5,5.5c-8.2,0-12-2.6-16.5-5.5
			c-4.6-3.1-9.8-6.5-19.8-6.5c-10,0-15.2,3.5-19.8,6.5c-0.7,0.4-1.3,0.9-2,1.3c-1.4,0.9-1.8,2.8-0.9,4.2c0.9,1.4,2.8,1.8,4.2,0.9
			c0.7-0.5,1.4-0.9,2.1-1.4c4.5-3,8.3-5.5,16.5-5.5c8.2,0,12,2.6,16.5,5.5c4.6,3.1,9.8,6.5,19.8,6.5c10,0,15.2-3.5,19.8-6.5
			c4.5-3,8.3-5.5,16.5-5.5c1.7,0,3-1.4,3-3C260,201.6,258.7,200.3,257,200.3z"/>
		<path class="st1" d="M148.4,212.4h-0.1c-8.1,0-12-2.6-16.5-5.5c-4.6-3.1-9.8-6.5-19.8-6.5c-10,0-15.2,3.5-19.8,6.5
			c-4.5,3-8.3,5.5-16.5,5.5c-8.1,0-12-2.6-16.5-5.5c-4.6-3.1-9.8-6.5-19.8-6.5c-1.7,0-3,1.4-3,3c0,1.7,1.4,3,3,3
			c8.1,0,12,2.6,16.5,5.5c4.6,3.1,9.8,6.5,19.8,6.5c10,0,15.2-3.5,19.8-6.5c4.5-3,8.3-5.5,16.5-5.5c8.1,0,12,2.6,16.5,5.5
			c4.6,3.1,9.8,6.5,19.8,6.5h0.1c1.7,0,3-1.4,3-3S150.1,212.4,148.4,212.4z"/>
		<path class="st1" d="M39.5,159.6c8.1,0,12,2.6,16.5,5.5c4.6,3.1,9.8,6.5,19.8,6.5c10,0,15.2-3.5,19.8-6.5c4.5-3,8.3-5.5,16.5-5.5
			c8.1,0,12,2.6,16.5,5.5c4.6,3.1,9.8,6.5,19.8,6.5c10,0,15.2-3.5,19.8-6.5c4.5-3,8.3-5.5,16.5-5.5c8.2,0,12,2.6,16.5,5.5
			c4.6,3.1,9.8,6.5,19.8,6.5c10,0,15.2-3.5,19.8-6.5c4.5-3,8.3-5.5,16.5-5.5c1.7,0,3-1.4,3-3s-1.4-3-3-3c-10,0-15.2,3.5-19.8,6.5
			c-4.5,3-8.3,5.5-16.5,5.5c-8.2,0-12-2.6-16.5-5.5c-4.3-2.9-9.2-6.1-18.1-6.5v-98c0-9.9-8-17.9-17.9-17.9h-3.5c-1.7,0-3,1.4-3,3
			c0,1.7,1.4,3,3,3h3.5c6.5,0,11.8,5.3,11.8,11.8v20.8h-55.6V52.8c0-8.3-6.8-15.1-15.1-15.1h-9c-8.3,0-15.1,6.8-15.1,15.1V67
			c0,1.7,1.4,3,3,3c1.7,0,3-1.4,3-3V52.8c0-5,4.1-9.1,9.1-9.1h9c5,0,9.1,4.1,9.1,9.1v101.3c-1.9-0.3-4-0.6-6.4-0.6
			c-10,0-15.2,3.5-19.8,6.5c-4.5,3-8.3,5.5-16.5,5.5c-8.1,0-12-2.6-16.5-5.5c-4.6-3.1-9.8-6.5-19.8-6.5c-1.7,0-3,1.4-3,3
			S37.9,159.6,39.5,159.6z M124.5,112.8h55.6v24.9h-55.6V112.8z M180.1,82.4v24.4h-55.6V82.4H180.1z M124.5,154.9v-11.1h55.6v10
			c-7.2,0.8-11.5,3.7-15.4,6.3c-4.5,3-8.3,5.5-16.5,5.5c-8.1,0-12-2.6-16.5-5.5c-2.2-1.5-4.5-3-7.5-4.3
			C124.4,155.5,124.5,155.2,124.5,154.9z"/>
	</g>
</g>
<g>
	<g>
		<path class="st2" d="M53.9,342.4c0,2.9-1.1,5.2-3.2,6.9c-2.1,1.7-5,2.5-8.7,2.5c-3.7,0-6.8-0.6-9.1-1.7V345
			c1.5,0.7,3.1,1.3,4.8,1.7c1.7,0.4,3.3,0.6,4.7,0.6c2.1,0,3.7-0.4,4.7-1.2c1-0.8,1.5-1.9,1.5-3.3c0-1.2-0.5-2.3-1.4-3.1
			c-0.9-0.9-2.8-1.9-5.8-3c-3-1.2-5.1-2.6-6.3-4.2c-1.2-1.6-1.8-3.4-1.8-5.6c0-2.7,1-4.9,2.9-6.5c1.9-1.6,4.6-2.4,7.8-2.4
			c3.1,0,6.3,0.7,9.4,2.1l-1.7,4.4c-2.9-1.2-5.5-1.8-7.8-1.8c-1.7,0-3.1,0.4-4,1.1c-0.9,0.8-1.3,1.8-1.3,3c0,0.9,0.2,1.6,0.5,2.2
			c0.4,0.6,1,1.2,1.8,1.7c0.8,0.5,2.3,1.3,4.4,2.1c2.4,1,4.2,1.9,5.3,2.8c1.1,0.9,1.9,1.8,2.5,2.9C53.7,339.7,53.9,340.9,53.9,342.4
			z"/>
		<path class="st2" d="M81,351.3l-3.2-11.6c-0.4-1.2-1.1-4.1-2.1-8.6h-0.2c-0.9,4-1.6,6.9-2.1,8.6l-3.3,11.5h-5.8l-7-24.8h5.4
			l3.2,12.2c0.7,3,1.2,5.6,1.5,7.8h0.1c0.1-1.1,0.4-2.3,0.7-3.8c0.3-1.4,0.6-2.5,0.8-3.2l3.8-13.1h5.8l3.7,13.1
			c0.2,0.7,0.5,1.9,0.8,3.4c0.3,1.5,0.5,2.7,0.6,3.5h0.2c0.2-1.8,0.7-4.4,1.6-7.7l3.2-12.2H94l-7,24.8H81z"/>
		<path class="st2" d="M98.8,319.9c0-0.9,0.3-1.7,0.8-2.2c0.5-0.5,1.3-0.8,2.2-0.8c0.9,0,1.7,0.3,2.2,0.8c0.5,0.5,0.8,1.2,0.8,2.2
			c0,0.9-0.3,1.6-0.8,2.1c-0.5,0.5-1.2,0.8-2.2,0.8c-1,0-1.7-0.3-2.2-0.8C99.1,321.5,98.8,320.8,98.8,319.9z M104.4,351.3h-5.3
			v-24.8h5.3V351.3z"/>
		<path class="st2" d="M133.8,351.3h-5.3V336c0-1.9-0.4-3.3-1.1-4.3c-0.7-0.9-1.8-1.4-3.4-1.4c-2,0-3.5,0.7-4.5,2
			c-1,1.3-1.4,3.5-1.4,6.6v12.4h-5.3v-24.8h4.1l0.7,3.3h0.3c0.7-1.2,1.7-2.1,3-2.7c1.3-0.6,2.8-1,4.3-1c3.8,0,6.3,1.3,7.6,3.9h0.4
			c0.7-1.2,1.8-2.2,3.1-2.9c1.3-0.7,2.9-1,4.6-1c3,0,5.1,0.7,6.5,2.2c1.4,1.5,2,3.8,2,6.9v16.2h-5.3V336c0-1.9-0.4-3.3-1.1-4.3
			c-0.7-0.9-1.9-1.4-3.4-1.4c-2.1,0-3.6,0.6-4.5,1.9c-1,1.3-1.4,3.2-1.4,5.9V351.3z"/>
		<path class="st2" d="M178.7,351.3h-5.3V336c0-1.9-0.4-3.3-1.1-4.3c-0.7-0.9-1.8-1.4-3.4-1.4c-2,0-3.5,0.7-4.5,2
			c-1,1.3-1.4,3.5-1.4,6.6v12.4h-5.3v-24.8h4.1l0.7,3.3h0.3c0.7-1.2,1.7-2.1,3-2.7c1.3-0.6,2.8-1,4.3-1c3.8,0,6.3,1.3,7.6,3.9h0.4
			c0.7-1.2,1.8-2.2,3.1-2.9c1.3-0.7,2.9-1,4.6-1c3,0,5.1,0.7,6.5,2.2c1.4,1.5,2,3.8,2,6.9v16.2h-5.3V336c0-1.9-0.4-3.3-1.1-4.3
			c-0.7-0.9-1.9-1.4-3.4-1.4c-2.1,0-3.6,0.6-4.5,1.9c-1,1.3-1.4,3.2-1.4,5.9V351.3z"/>
		<path class="st2" d="M202.4,319.9c0-0.9,0.3-1.7,0.8-2.2c0.5-0.5,1.3-0.8,2.2-0.8c0.9,0,1.7,0.3,2.2,0.8c0.5,0.5,0.8,1.2,0.8,2.2
			c0,0.9-0.3,1.6-0.8,2.1c-0.5,0.5-1.2,0.8-2.2,0.8c-1,0-1.7-0.3-2.2-0.8C202.6,321.5,202.4,320.8,202.4,319.9z M208,351.3h-5.3
			v-24.8h5.3V351.3z"/>
		<path class="st2" d="M238.3,351.3H233v-15.3c0-1.9-0.4-3.3-1.2-4.3c-0.8-0.9-2-1.4-3.7-1.4c-2.2,0-3.9,0.7-4.9,2
			c-1,1.3-1.5,3.5-1.5,6.6v12.4h-5.3v-24.8h4.1l0.7,3.3h0.3c0.7-1.2,1.8-2.1,3.2-2.7c1.4-0.6,2.9-1,4.6-1c6,0,8.9,3,8.9,9.1V351.3z"
			/>
		<path class="st2" d="M267.5,326.5v2.9l-4.2,0.8c0.4,0.5,0.7,1.2,1,1.9c0.3,0.8,0.4,1.6,0.4,2.4c0,2.6-0.9,4.6-2.7,6
			c-1.8,1.5-4.2,2.2-7.3,2.2c-0.8,0-1.5-0.1-2.2-0.2c-1.1,0.7-1.7,1.5-1.7,2.5c0,0.6,0.3,1,0.8,1.3c0.5,0.3,1.5,0.4,2.9,0.4h4.3
			c2.7,0,4.8,0.6,6.2,1.8c1.4,1.2,2.1,2.9,2.1,5.1c0,2.8-1.2,5-3.5,6.5c-2.3,1.5-5.7,2.3-10.1,2.3c-3.4,0-6-0.6-7.7-1.8
			c-1.8-1.2-2.7-2.9-2.7-5.1c0-1.5,0.5-2.8,1.4-3.9c1-1,2.3-1.8,4.1-2.2c-0.7-0.3-1.3-0.8-1.7-1.4c-0.5-0.7-0.7-1.4-0.7-2.1
			c0-0.9,0.3-1.7,0.8-2.4c0.5-0.6,1.3-1.3,2.3-1.9c-1.3-0.6-2.3-1.5-3.1-2.7c-0.8-1.2-1.2-2.7-1.2-4.4c0-2.7,0.8-4.8,2.5-6.3
			c1.7-1.5,4.1-2.2,7.3-2.2c0.7,0,1.4,0,2.2,0.1c0.8,0.1,1.4,0.2,1.7,0.3H267.5z M248,355.2c0,1.1,0.5,2,1.5,2.6
			c1,0.6,2.5,0.9,4.3,0.9c2.9,0,5-0.4,6.4-1.2c1.4-0.8,2.1-1.9,2.1-3.3c0-1.1-0.4-1.8-1.2-2.3c-0.8-0.5-2.2-0.7-4.3-0.7h-4
			c-1.5,0-2.7,0.4-3.6,1.1C248.5,353,248,354,248,355.2z M250.3,334.5c0,1.6,0.4,2.8,1.2,3.6c0.8,0.8,2,1.3,3.4,1.3
			c3.1,0,4.6-1.6,4.6-4.9c0-1.6-0.4-2.9-1.1-3.7c-0.8-0.9-1.9-1.3-3.4-1.3c-1.5,0-2.7,0.4-3.5,1.3
			C250.7,331.6,250.3,332.9,250.3,334.5z"/>
	</g>
</g>
</svg>
